<svg xmlns="http://www.w3.org/2000/svg" width="780" height="722.2154105" viewBox="0 0 780 722.2154105">
<rect x="0" y="0" width="780" height="722.2154105" fill="white"/>
<clipPath id="plotclip"><rect x="58" y="14" width="708" height="666.2154105"/></clipPath>
<g clip-path="url(#plotclip)">
<ellipse cx="0" cy="0" rx="50.54822063" ry="14.03059798" transform="translate(140.6427503 635.5915313) rotate(-3.505551444)" stroke="rgb(0,114,178)" stroke-width="1.3" fill="rgb(0,114,178)" fill-opacity="0.3"/>
<ellipse cx="0" cy="0" rx="44.21123051" ry="10.05380178" transform="translate(248.7243787 634.8738584) rotate(13.26867731)" stroke="rgb(0,114,178)" stroke-width="1.3" fill="rgb(0,114,178)" fill-opacity="0.3"/>
<ellipse cx="0" cy="0" rx="55.37060656" ry="18.76762871" transform="translate(408.059142 602.1121366) rotate(-16.70628709)" stroke="rgb(0,114,178)" stroke-width="1.3" fill="rgb(0,114,178)" fill-opacity="0.3"/>
<ellipse cx="0" cy="0" rx="37.5995196" ry="17.06967606" transform="translate(551.7650205 604.2265321) rotate(74.21989963)" stroke="rgb(0,114,178)" stroke-width="1.3" fill="rgb(0,114,178)" fill-opacity="0.3"/>
<ellipse cx="0" cy="0" rx="37.41358749" ry="9.164952405" transform="translate(671.8281795 593.6946098) rotate(39.9410966)" stroke="rgb(0,114,178)" stroke-width="1.3" fill="rgb(0,114,178)" fill-opacity="0.3"/>
<ellipse cx="0" cy="0" rx="43.97043297" ry="12.71337126" transform="translate(184.8546515 531.5485667) rotate(32.71009171)" stroke="rgb(0,114,178)" stroke-width="1.3" fill="rgb(0,114,178)" fill-opacity="0.3"/>
<ellipse cx="0" cy="0" rx="53.40188179" ry="15.54476148" transform="translate(293.2374543 566.5370614) rotate(51.70903174)" stroke="rgb(0,114,178)" stroke-width="1.3" fill="rgb(0,114,178)" fill-opacity="0.3"/>
<ellipse cx="0" cy="0" rx="45.75568344" ry="9.384377803" transform="translate(362.1284094 545.8478485) rotate(39.00401314)" stroke="rgb(0,114,178)" stroke-width="1.3" fill="rgb(0,114,178)" fill-opacity="0.3"/>
<ellipse cx="0" cy="0" rx="44.78835958" ry="16.8587866" transform="translate(465.4922914 550.0685788) rotate(27.36342281)" stroke="rgb(0,114,178)" stroke-width="1.3" fill="rgb(0,114,178)" fill-opacity="0.3"/>
<ellipse cx="0" cy="0" rx="47.63686442" ry="14.51049751" transform="translate(538.5429875 524.3602166) rotate(-12.43673369)" stroke="rgb(0,114,178)" stroke-width="1.3" fill="rgb(0,114,178)" fill-opacity="0.3"/>
<ellipse cx="0" cy="0" rx="38.40554879" ry="9.663363756" transform="translate(139.3312093 493.5407177) rotate(114.3690302)" stroke="rgb(0,114,178)" stroke-width="1.3" fill="rgb(0,114,178)" fill-opacity="0.3"/>
<ellipse cx="0" cy="0" rx="35.1451335" ry="8.952257488" transform="translate(227.7027557 472.1458717) rotate(-6.649707026)" stroke="rgb(0,114,178)" stroke-width="1.3" fill="rgb(0,114,178)" fill-opacity="0.3"/>
<ellipse cx="0" cy="0" rx="50.88022182" ry="18.94192149" transform="translate(333.0815674 481.7965907) rotate(37.78146549)" stroke="rgb(0,114,178)" stroke-width="1.3" fill="rgb(0,114,178)" fill-opacity="0.3"/>
<ellipse cx="0" cy="0" rx="47.88138246" ry="18.03265413" transform="translate(400.3264553 445.6176688) rotate(95.46445953)" stroke="rgb(0,114,178)" stroke-width="1.3" fill="rgb(0,114,178)" fill-opacity="0.3"/>
<ellipse cx="0" cy="0" rx="52.60042417" ry="10.76067658" transform="translate(435.9164174 464.911819) rotate(114.9328109)" stroke="rgb(0,114,178)" stroke-width="1.3" fill="rgb(0,114,178)" fill-opacity="0.3"/>
<ellipse cx="0" cy="0" rx="52.3132566" ry="16.27721003" transform="translate(529.9479144 483.1974528) rotate(4.11499776)" stroke="rgb(0,114,178)" stroke-width="1.3" fill="rgb(0,114,178)" fill-opacity="0.3"/>
<ellipse cx="0" cy="0" rx="41.61697937" ry="17.44411436" transform="translate(632.8998501 493.5821224) rotate(-3.731945628)" stroke="rgb(0,114,178)" stroke-width="1.3" fill="rgb(0,114,178)" fill-opacity="0.3"/>
<ellipse cx="0" cy="0" rx="46.32520444" ry="13.33207615" transform="translate(154.4527378 384.7150704) rotate(12.07677418)" stroke="rgb(0,114,178)" stroke-width="1.3" fill="rgb(0,114,178)" fill-opacity="0.3"/>
<ellipse cx="0" cy="0" rx="54.22436888" ry="10.64685684" transform="translate(229.7278736 385.4460262) rotate(113.0549028)" stroke="rgb(0,114,178)" stroke-width="1.3" fill="rgb(0,114,178)" fill-opacity="0.3"/>
<ellipse cx="0" cy="0" rx="50.1869533" ry="17.89304374" transform="translate(288.0169987 383.169242) rotate(62.52907207)" stroke="rgb(0,114,178)" stroke-width="1.3" fill="rgb(0,114,178)" fill-opacity="0.3"/>
<ellipse cx="0" cy="0" rx="49.17236292" ry="19.70219621" transform="translate(524.6673584 408.5526484) rotate(-17.30944908)" stroke="rgb(0,114,178)" stroke-width="1.3" fill="rgb(0,114,178)" fill-opacity="0.3"/>
<ellipse cx="0" cy="0" rx="40.8487821" ry="9.718667775" transform="translate(586.0265867 403.8412384) rotate(96.92255258)" stroke="rgb(0,114,178)" stroke-width="1.3" fill="rgb(0,114,178)" fill-opacity="0.3"/>
<ellipse cx="0" cy="0" rx="53.00844124" ry="15.67492543" transform="translate(656.4326037 417.0661994) rotate(-25.11923605)" stroke="rgb(0,114,178)" stroke-width="1.3" fill="rgb(0,114,178)" fill-opacity="0.3"/>
<ellipse cx="0" cy="0" rx="44.42154934" ry="17.10427781" transform="translate(157.2804163 325.2803499) rotate(67.88961628)" stroke="rgb(0,114,178)" stroke-width="1.3" fill="rgb(0,114,178)" fill-opacity="0.3"/>
<ellipse cx="0" cy="0" rx="42.84839178" ry="13.43212161" transform="translate(232.8495287 320.2926981) rotate(108.7750386)" stroke="rgb(0,114,178)" stroke-width="1.3" fill="rgb(0,114,178)" fill-opacity="0.3"/>
<ellipse cx="0" cy="0" rx="52.50997778" ry="18.138185" transform="translate(333.0910673 339.9868823) rotate(37.10263268)" stroke="rgb(0,114,178)" stroke-width="1.3" fill="rgb(0,114,178)" fill-opacity="0.3"/>
<ellipse cx="0" cy="0" rx="46.67756199" ry="11.02947526" transform="translate(446.6498001 315.1575499) rotate(54.70779507)" stroke="rgb(0,114,178)" stroke-width="1.3" fill="rgb(0,114,178)" fill-opacity="0.3"/>
<ellipse cx="0" cy="0" rx="41.97929275" ry="9.295735774" transform="translate(547.1248461 338.5731138) rotate(87.63887498)" stroke="rgb(0,114,178)" stroke-width="1.3" fill="rgb(0,114,178)" fill-opacity="0.3"/>
<ellipse cx="0" cy="0" rx="36.09959828" ry="15.19762564" transform="translate(612.1941134 326.0474732) rotate(122.6032215)" stroke="rgb(0,114,178)" stroke-width="1.3" fill="rgb(0,114,178)" fill-opacity="0.3"/>
<ellipse cx="0" cy="0" rx="48.2374694" ry="16.78746987" transform="translate(689.5718369 337.900039) rotate(25.1408339)" stroke="rgb(0,114,178)" stroke-width="1.3" fill="rgb(0,114,178)" fill-opacity="0.3"/>
<ellipse cx="0" cy="0" rx="44.67816779" ry="17.85779313" transform="translate(226.8110751 227.3613123) rotate(22.19678734)" stroke="rgb(0,114,178)" stroke-width="1.3" fill="rgb(0,114,178)" fill-opacity="0.3"/>
<ellipse cx="0" cy="0" rx="42.42747468" ry="9.837433108" transform="translate(293.6559725 269.963019) rotate(125.8236227)" stroke="rgb(0,114,178)" stroke-width="1.3" fill="rgb(0,114,178)" fill-opacity="0.3"/>
<ellipse cx="0" cy="0" rx="51.70359145" ry="9.700538282" transform="translate(377.0583035 266.1738909) rotate(-25.84421638)" stroke="rgb(0,114,178)" stroke-width="1.3" fill="rgb(0,114,178)" fill-opacity="0.3"/>
<ellipse cx="0" cy="0" rx="46.88923241" ry="11.87677967" transform="translate(455.7297868 224.2178116) rotate(67.4592659)" stroke="rgb(0,114,178)" stroke-width="1.3" fill="rgb(0,114,178)" fill-opacity="0.3"/>
<ellipse cx="0" cy="0" rx="49.57058962" ry="17.2471254" transform="translate(541.3753767 258.8860249) rotate(13.63738514)" stroke="rgb(0,114,178)" stroke-width="1.3" fill="rgb(0,114,178)" fill-opacity="0.3"/>
<ellipse cx="0" cy="0" rx="40.73431548" ry="16.06248075" transform="translate(676.9666924 234.2130946) rotate(97.37592068)" stroke="rgb(0,114,178)" stroke-width="1.3" fill="rgb(0,114,178)" fill-opacity="0.3"/>
<ellipse cx="0" cy="0" rx="37.82468616" ry="16.92611832" transform="translate(183.249285 173.7528547) rotate(13.95856815)" stroke="rgb(0,114,178)" stroke-width="1.3" fill="rgb(0,114,178)" fill-opacity="0.3"/>
<ellipse cx="0" cy="0" rx="46.21437943" ry="10.59785923" transform="translate(236.7499228 151.8064325) rotate(28.47553795)" stroke="rgb(0,114,178)" stroke-width="1.3" fill="rgb(0,114,178)" fill-opacity="0.3"/>
<ellipse cx="0" cy="0" rx="54.26694018" ry="15.00158445" transform="translate(314.0635075 167.0293942) rotate(99.40100311)" stroke="rgb(0,114,178)" stroke-width="1.3" fill="rgb(0,114,178)" fill-opacity="0.3"/>
<ellipse cx="0" cy="0" rx="57.48586671" ry="19.01494116" transform="translate(409.5813958 162.3837907) rotate(122.1677596)" stroke="rgb(0,114,178)" stroke-width="1.3" fill="rgb(0,114,178)" fill-opacity="0.3"/>
<ellipse cx="0" cy="0" rx="56.95151665" ry="12.21973597" transform="translate(526.3292755 179.1877692) rotate(46.19406971)" stroke="rgb(0,114,178)" stroke-width="1.3" fill="rgb(0,114,178)" fill-opacity="0.3"/>
<ellipse cx="0" cy="0" rx="44.00658722" ry="11.53293461" transform="translate(594.3670825 184.3956054) rotate(12.46174185)" stroke="rgb(0,114,178)" stroke-width="1.3" fill="rgb(0,114,178)" fill-opacity="0.3"/>
<ellipse cx="0" cy="0" rx="37.4359326" ry="14.87064175" transform="translate(170.699726 95.74191467) rotate(12.21285587)" stroke="rgb(0,114,178)" stroke-width="1.3" fill="rgb(0,114,178)" fill-opacity="0.3"/>
<ellipse cx="0" cy="0" rx="39.98364886" ry="10.40155559" transform="translate(285.2047926 99.57304092) rotate(89.01461681)" stroke="rgb(0,114,178)" stroke-width="1.3" fill="rgb(0,114,178)" fill-opacity="0.3"/>
<ellipse cx="0" cy="0" rx="42.65058148" ry="12.85959244" transform="translate(435.1650904 77.05248846) rotate(6.132032038)" stroke="rgb(0,114,178)" stroke-width="1.3" fill="rgb(0,114,178)" fill-opacity="0.3"/>
<ellipse cx="0" cy="0" rx="47.67686503" ry="9.278245635" transform="translate(509.7139158 123.0017196) rotate(49.75083625)" stroke="rgb(0,114,178)" stroke-width="1.3" fill="rgb(0,114,178)" fill-opacity="0.3"/>
<ellipse cx="0" cy="0" rx="40.25730481" ry="9.473545279" transform="translate(602.5034469 88.44267886) rotate(63.35136216)" stroke="rgb(0,114,178)" stroke-width="1.3" fill="rgb(0,114,178)" fill-opacity="0.3"/>
<ellipse cx="0" cy="0" rx="51.61504131" ry="13.59115001" transform="translate(667.5009474 88.00534565) rotate(56.57238091)" stroke="rgb(0,114,178)" stroke-width="1.3" fill="rgb(0,114,178)" fill-opacity="0.3"/>
<ellipse cx="0" cy="0" rx="52.11409547" ry="18.27037097" transform="translate(150.3525822 258.2087649) rotate(-39.24069913)" stroke="rgb(230,159,0)" stroke-width="1.3" fill="rgb(230,159,0)" fill-opacity="0.3"/>
<ellipse cx="0" cy="0" rx="57.41307794" ry="13.16482214" transform="translate(366.7542659 112.2839154) rotate(14.43454154)" stroke="rgb(230,159,0)" stroke-width="1.3" fill="rgb(230,159,0)" fill-opacity="0.3"/>
<ellipse cx="0" cy="0" rx="52.20866981" ry="19.43543981" transform="translate(448.034905 405.4893002) rotate(47.11421783)" stroke="rgb(230,159,0)" stroke-width="1.3" fill="rgb(230,159,0)" fill-opacity="0.3"/>
<ellipse cx="0" cy="0" rx="58.46180727" ry="10.18222238" transform="translate(616.2412329 612.1597823) rotate(-3.687058629)" stroke="rgb(230,159,0)" stroke-width="1.3" fill="rgb(230,159,0)" fill-opacity="0.3"/>
<ellipse cx="0" cy="0" rx="46.74313015" ry="18.81423351" transform="translate(470.2857749 607.0993249) rotate(-19.57253851)" stroke="rgb(230,159,0)" stroke-width="1.3" fill="rgb(230,159,0)" fill-opacity="0.3"/>
<ellipse cx="0" cy="0" rx="51.79849471" ry="12.23908656" transform="translate(222.9688247 79.494152) rotate(-14.55001453)" stroke="rgb(230,159,0)" stroke-width="1.3" fill="rgb(230,159,0)" fill-opacity="0.3"/>
<ellipse cx="0" cy="0" rx="56.00554482" ry="18.45424084" transform="translate(397.2989863 332.2025976) rotate(-4.359130501)" stroke="rgb(230,159,0)" stroke-width="1.3" fill="rgb(230,159,0)" fill-opacity="0.3"/>
<ellipse cx="0" cy="0" rx="36.21492647" ry="18.4821343" transform="translate(227.6732675 561.0557683) rotate(-36.7217741)" stroke="rgb(230,159,0)" stroke-width="1.3" fill="rgb(230,159,0)" fill-opacity="0.3"/>
<ellipse cx="0" cy="0" rx="56.55098567" ry="14.29886677" transform="translate(296.8951814 619.7743756) rotate(-2.300551349)" stroke="rgb(230,159,0)" stroke-width="1.3" fill="rgb(230,159,0)" fill-opacity="0.3"/>
<ellipse cx="0" cy="0" rx="53.96180894" ry="13.30875865" transform="translate(667.8633541 545.7414576) rotate(103.1124272)" stroke="rgb(230,159,0)" stroke-width="1.3" fill="rgb(230,159,0)" fill-opacity="0.3"/>
<ellipse cx="0" cy="0" rx="51.39520387" ry="19.00546865" transform="translate(597.151363 231.9054433) rotate(83.93485909)" stroke="rgb(230,159,0)" stroke-width="1.3" fill="rgb(230,159,0)" fill-opacity="0.3"/>
<ellipse cx="0" cy="0" rx="58.01220421" ry="15.06691187" transform="translate(455.5499309 157.0794067) rotate(-22.86873941)" stroke="rgb(230,159,0)" stroke-width="1.3" fill="rgb(230,159,0)" fill-opacity="0.3"/>
<ellipse cx="0" cy="0" rx="58.19983549" ry="14.33810914" transform="translate(677.2200044 191.0090635) rotate(59.04999367)" stroke="rgb(230,159,0)" stroke-width="1.3" fill="rgb(230,159,0)" fill-opacity="0.3"/>
<ellipse cx="0" cy="0" rx="51.49271632" ry="19.44959725" transform="translate(670.977329 455.944822) rotate(-38.6647356)" stroke="rgb(230,159,0)" stroke-width="1.3" fill="rgb(230,159,0)" fill-opacity="0.3"/>
<ellipse cx="0" cy="0" rx="50.91589044" ry="12.64039316" transform="translate(605.4805289 521.6939736) rotate(2.398385802)" stroke="rgb(230,159,0)" stroke-width="1.3" fill="rgb(230,159,0)" fill-opacity="0.3"/>
<ellipse cx="0" cy="0" rx="58.13456271" ry="13.96610115" transform="translate(392.5304676 420.7116178) rotate(-41.0518609)" stroke="rgb(0,158,115)" stroke-width="1.3" fill="rgb(0,158,115)" fill-opacity="0.3"/>
</g>
<rect x="58" y="14" width="708" height="666.2154105" stroke="rgb(60,60,60)" stroke-width="1" fill="none"/>
<polyline points="137.1022166,680.2154105 137.1022166,684.2154105" stroke="rgb(60,60,60)" stroke-width="1" fill="none"/>
<text x="137.1022166" y="697.2154105" font-family="Helvetica,Arial,sans-serif" font-size="11" fill="rgb(60,60,60)" text-anchor="middle">0</text>
<polyline points="285.1958643,680.2154105 285.1958643,684.2154105" stroke="rgb(60,60,60)" stroke-width="1" fill="none"/>
<text x="285.1958643" y="697.2154105" font-family="Helvetica,Arial,sans-serif" font-size="11" fill="rgb(60,60,60)" text-anchor="middle">2</text>
<polyline points="433.289512,680.2154105 433.289512,684.2154105" stroke="rgb(60,60,60)" stroke-width="1" fill="none"/>
<text x="433.289512" y="697.2154105" font-family="Helvetica,Arial,sans-serif" font-size="11" fill="rgb(60,60,60)" text-anchor="middle">4</text>
<polyline points="581.3831597,680.2154105 581.3831597,684.2154105" stroke="rgb(60,60,60)" stroke-width="1" fill="none"/>
<text x="581.3831597" y="697.2154105" font-family="Helvetica,Arial,sans-serif" font-size="11" fill="rgb(60,60,60)" text-anchor="middle">6</text>
<polyline points="729.4768073,680.2154105 729.4768073,684.2154105" stroke="rgb(60,60,60)" stroke-width="1" fill="none"/>
<text x="729.4768073" y="697.2154105" font-family="Helvetica,Arial,sans-serif" font-size="11" fill="rgb(60,60,60)" text-anchor="middle">8</text>
<polyline points="54,644.9354101 58,644.9354101" stroke="rgb(60,60,60)" stroke-width="1" fill="none"/>
<text x="50" y="648.9354101" font-family="Helvetica,Arial,sans-serif" font-size="11" fill="rgb(60,60,60)" text-anchor="end">0</text>
<polyline points="54,570.8885862 58,570.8885862" stroke="rgb(60,60,60)" stroke-width="1" fill="none"/>
<text x="50" y="574.8885862" font-family="Helvetica,Arial,sans-serif" font-size="11" fill="rgb(60,60,60)" text-anchor="end">1</text>
<polyline points="54,496.8417624 58,496.8417624" stroke="rgb(60,60,60)" stroke-width="1" fill="none"/>
<text x="50" y="500.8417624" font-family="Helvetica,Arial,sans-serif" font-size="11" fill="rgb(60,60,60)" text-anchor="end">2</text>
<polyline points="54,422.7949386 58,422.7949386" stroke="rgb(60,60,60)" stroke-width="1" fill="none"/>
<text x="50" y="426.7949386" font-family="Helvetica,Arial,sans-serif" font-size="11" fill="rgb(60,60,60)" text-anchor="end">3</text>
<polyline points="54,348.7481147 58,348.7481147" stroke="rgb(60,60,60)" stroke-width="1" fill="none"/>
<text x="50" y="352.7481147" font-family="Helvetica,Arial,sans-serif" font-size="11" fill="rgb(60,60,60)" text-anchor="end">4</text>
<polyline points="54,274.7012909 58,274.7012909" stroke="rgb(60,60,60)" stroke-width="1" fill="none"/>
<text x="50" y="278.7012909" font-family="Helvetica,Arial,sans-serif" font-size="11" fill="rgb(60,60,60)" text-anchor="end">5</text>
<polyline points="54,200.6544671 58,200.6544671" stroke="rgb(60,60,60)" stroke-width="1" fill="none"/>
<text x="50" y="204.6544671" font-family="Helvetica,Arial,sans-serif" font-size="11" fill="rgb(60,60,60)" text-anchor="end">6</text>
<polyline points="54,126.6076432 58,126.6076432" stroke="rgb(60,60,60)" stroke-width="1" fill="none"/>
<text x="50" y="130.6076432" font-family="Helvetica,Arial,sans-serif" font-size="11" fill="rgb(60,60,60)" text-anchor="end">7</text>
<polyline points="54,52.5608194 58,52.5608194" stroke="rgb(60,60,60)" stroke-width="1" fill="none"/>
<text x="50" y="56.5608194" font-family="Helvetica,Arial,sans-serif" font-size="11" fill="rgb(60,60,60)" text-anchor="end">8</text>
</svg>
