<svg xmlns="http://www.w3.org/2000/svg" width="780" height="660.3208452" viewBox="0 0 780 660.3208452">
<rect x="0" y="0" width="780" height="660.3208452" fill="white"/>
<clipPath id="plotclip"><rect x="58" y="14" width="708" height="604.3208452"/></clipPath>
<g clip-path="url(#plotclip)">
<ellipse cx="0" cy="0" rx="49.18942579" ry="11.66575306" transform="translate(121.503743 513.8023323) rotate(52.53309394)" stroke="rgb(158,158,158)" stroke-width="1" fill="rgb(158,158,158)" fill-opacity="0.15"/>
<ellipse cx="0" cy="0" rx="50.60627863" ry="13.2287069" transform="translate(256.6780645 541.3578992) rotate(77.52372175)" stroke="rgb(158,158,158)" stroke-width="1" fill="rgb(158,158,158)" fill-opacity="0.15"/>
<ellipse cx="0" cy="0" rx="27.82035114" ry="10.77110239" transform="translate(332.0418001 491.6347056) rotate(-22.60540974)" stroke="rgb(158,158,158)" stroke-width="1" fill="rgb(158,158,158)" fill-opacity="0.15"/>
<ellipse cx="0" cy="0" rx="38.51878883" ry="15.98512038" transform="translate(441.0776218 533.2375872) rotate(-16.83930858)" stroke="rgb(158,158,158)" stroke-width="1" fill="rgb(158,158,158)" fill-opacity="0.15"/>
<ellipse cx="0" cy="0" rx="38.8492884" ry="15.49663869" transform="translate(554.0391084 547.2256565) rotate(97.76982763)" stroke="rgb(158,158,158)" stroke-width="1" fill="rgb(158,158,158)" fill-opacity="0.15"/>
<ellipse cx="0" cy="0" rx="44.81320639" ry="13.82299558" transform="translate(669.5166524 535.3107408) rotate(116.2969379)" stroke="rgb(158,158,158)" stroke-width="1" fill="rgb(158,158,158)" fill-opacity="0.15"/>
<ellipse cx="0" cy="0" rx="47.2078212" ry="14.53110943" transform="translate(175.5650547 404.295196) rotate(-4.316749069)" stroke="rgb(158,158,158)" stroke-width="1" fill="rgb(158,158,158)" fill-opacity="0.15"/>
<ellipse cx="0" cy="0" rx="37.8314908" ry="14.46606919" transform="translate(240.5365252 379.7349546) rotate(107.574915)" stroke="rgb(158,158,158)" stroke-width="1" fill="rgb(158,158,158)" fill-opacity="0.15"/>
<ellipse cx="0" cy="0" rx="42.41689502" ry="13.26497744" transform="translate(350.4955714 424.0145676) rotate(55.23488273)" stroke="rgb(158,158,158)" stroke-width="1" fill="rgb(158,158,158)" fill-opacity="0.15"/>
<ellipse cx="0" cy="0" rx="41.29483819" ry="16.65712631" transform="translate(447.84032 424.5666794) rotate(98.17041095)" stroke="rgb(158,158,158)" stroke-width="1" fill="rgb(158,158,158)" fill-opacity="0.15"/>
<ellipse cx="0" cy="0" rx="33.62044109" ry="10.92845951" transform="translate(597.1687732 392.1395994) rotate(124.8544354)" stroke="rgb(158,158,158)" stroke-width="1" fill="rgb(158,158,158)" fill-opacity="0.15"/>
<ellipse cx="0" cy="0" rx="51.76752062" ry="8.77536393" transform="translate(676.5413518 384.9053233) rotate(50.68373307)" stroke="rgb(158,158,158)" stroke-width="1" fill="rgb(158,158,158)" fill-opacity="0.15"/>
<ellipse cx="0" cy="0" rx="35.43089963" ry="18.2095112" transform="translate(126.1229152 272.6478607) rotate(58.97065483)" stroke="rgb(158,158,158)" stroke-width="1" fill="rgb(158,158,158)" fill-opacity="0.15"/>
<ellipse cx="0" cy="0" rx="36.83946363" ry="13.09652986" transform="translate(278.1673772 283.3671469) rotate(108.18146)" stroke="rgb(158,158,158)" stroke-width="1" fill="rgb(158,158,158)" fill-opacity="0.15"/>
<ellipse cx="0" cy="0" rx="47.77758221" ry="14.52027332" transform="translate(357.383868 329.3527609) rotate(62.38576328)" stroke="rgb(158,158,158)" stroke-width="1" fill="rgb(158,158,158)" fill-opacity="0.15"/>
<ellipse cx="0" cy="0" rx="32.75075894" ry="11.93162397" transform="translate(460.9740694 289.4858469) rotate(-4.161172074)" stroke="rgb(158,158,158)" stroke-width="1" fill="rgb(158,158,158)" fill-opacity="0.15"/>
<ellipse cx="0" cy="0" rx="46.73545762" ry="11.43403062" transform="translate(580.8202812 309.18649) rotate(95.59055843)" stroke="rgb(158,158,158)" stroke-width="1" fill="rgb(158,158,158)" fill-opacity="0.15"/>
<ellipse cx="0" cy="0" rx="38.96996887" ry="15.54461896" transform="translate(670.3703578 296.1549682) rotate(-36.60390079)" stroke="rgb(158,158,158)" stroke-width="1" fill="rgb(158,158,158)" fill-opacity="0.15"/>
<ellipse cx="0" cy="0" rx="50.02147215" ry="11.58643951" transform="translate(159.4851088 173.1195948) rotate(74.47423093)" stroke="rgb(158,158,158)" stroke-width="1" fill="rgb(158,158,158)" fill-opacity="0.15"/>
<ellipse cx="0" cy="0" rx="38.88804707" ry="9.359083334" transform="translate(241.7379608 176.2831713) rotate(112.6573915)" stroke="rgb(158,158,158)" stroke-width="1" fill="rgb(158,158,158)" fill-opacity="0.15"/>
<ellipse cx="0" cy="0" rx="28.43895375" ry="14.05183041" transform="translate(379.6390514 215.1535663) rotate(-36.24825334)" stroke="rgb(158,158,158)" stroke-width="1" fill="rgb(158,158,158)" fill-opacity="0.15"/>
<ellipse cx="0" cy="0" rx="39.66235956" ry="13.32322273" transform="translate(443.3721898 174.3702867) rotate(55.32563398)" stroke="rgb(158,158,158)" stroke-width="1" fill="rgb(158,158,158)" fill-opacity="0.15"/>
<ellipse cx="0" cy="0" rx="40.5314615" ry="16.5403621" transform="translate(567.9603353 205.0951702) rotate(52.6161098)" stroke="rgb(158,158,158)" stroke-width="1" fill="rgb(158,158,158)" fill-opacity="0.15"/>
<ellipse cx="0" cy="0" rx="45.15875865" ry="11.93715564" transform="translate(695.990213 198.9897833) rotate(34.49445781)" stroke="rgb(158,158,158)" stroke-width="1" fill="rgb(158,158,158)" fill-opacity="0.15"/>
<ellipse cx="0" cy="0" rx="39.81489705" ry="12.18914219" transform="translate(171.1048816 97.42569505) rotate(59.73545386)" stroke="rgb(158,158,158)" stroke-width="1" fill="rgb(158,158,158)" fill-opacity="0.15"/>
<ellipse cx="0" cy="0" rx="35.44429299" ry="14.13277367" transform="translate(260.6539377 86.74148907) rotate(31.29659883)" stroke="rgb(158,158,158)" stroke-width="1" fill="rgb(158,158,158)" fill-opacity="0.15"/>
<ellipse cx="0" cy="0" rx="34.81487688" ry="11.15000559" transform="translate(339.9883369 92.83523638) rotate(-11.07523308)" stroke="rgb(158,158,158)" stroke-width="1" fill="rgb(158,158,158)" fill-opacity="0.15"/>
<ellipse cx="0" cy="0" rx="32.89859073" ry="8.781900297" transform="translate(500.1152551 69.61648142) rotate(122.4907592)" stroke="rgb(158,158,158)" stroke-width="1" fill="rgb(158,158,158)" fill-opacity="0.15"/>
<ellipse cx="0" cy="0" rx="27.4299134" ry="16.29647112" transform="translate(575.6665221 77.03007847) rotate(62.91389109)" stroke="rgb(158,158,158)" stroke-width="1" fill="rgb(158,158,158)" fill-opacity="0.15"/>
<ellipse cx="0" cy="0" rx="42.68540736" ry="10.768143" transform="translate(682.1309663 88.9579967) rotate(14.75420955)" stroke="rgb(158,158,158)" stroke-width="1" fill="rgb(158,158,158)" fill-opacity="0.15"/>
<ellipse cx="0" cy="0" rx="33.62044109" ry="10.92845951" transform="translate(597.1687732 392.1395994) rotate(124.8544354)" stroke="rgb(213,94,0)" stroke-width="1.6" fill="rgb(213,94,0)" fill-opacity="0.3"/>
<ellipse cx="0" cy="0" rx="44.81320639" ry="13.82299558" transform="translate(669.5166524 535.3107408) rotate(116.2969379)" stroke="rgb(213,94,0)" stroke-width="1.6" fill="rgb(213,94,0)" fill-opacity="0.3"/>
<ellipse cx="0" cy="0" rx="38.8492884" ry="15.49663869" transform="translate(554.0391084 547.2256565) rotate(97.76982763)" stroke="rgb(213,94,0)" stroke-width="1.6" fill="rgb(213,94,0)" fill-opacity="0.3"/>
<ellipse cx="0" cy="0" rx="50.02147215" ry="11.58643951" transform="translate(159.4851088 173.1195948) rotate(74.47423093)" stroke="rgb(213,94,0)" stroke-width="1.6" fill="rgb(213,94,0)" fill-opacity="0.3"/>
<ellipse cx="0" cy="0" rx="38.88804707" ry="9.359083334" transform="translate(241.7379608 176.2831713) rotate(112.6573915)" stroke="rgb(213,94,0)" stroke-width="1.6" fill="rgb(213,94,0)" fill-opacity="0.3"/>
<circle cx="384.3071401" cy="335.2695793" r="5" stroke="none" fill="rgb(0,114,178)"/>
<rect x="523.3245848" y="410.1251264" width="149.7110942" height="117.6301454" stroke="rgb(0,114,178)" stroke-width="2" fill="rgb(0,114,178)" fill-opacity="0.12"/>
<ellipse cx="0" cy="0" rx="74.8555471" ry="32.08094876" transform="translate(223.9023964 164.1711859) rotate(-0)" stroke="rgb(0,114,178)" stroke-width="2" fill="rgb(0,114,178)" fill-opacity="0.12"/>
</g>
<rect x="58" y="14" width="708" height="604.3208452" stroke="rgb(60,60,60)" stroke-width="1" fill="none"/>
<polyline points="116.9659005,618.3208452 116.9659005,622.3208452" stroke="rgb(60,60,60)" stroke-width="1" fill="none"/>
<text x="116.9659005" y="635.3208452" font-family="Helvetica,Arial,sans-serif" font-size="11" fill="rgb(60,60,60)" text-anchor="middle">0</text>
<polyline points="223.9023964,618.3208452 223.9023964,622.3208452" stroke="rgb(60,60,60)" stroke-width="1" fill="none"/>
<text x="223.9023964" y="635.3208452" font-family="Helvetica,Arial,sans-serif" font-size="11" fill="rgb(60,60,60)" text-anchor="middle">1</text>
<polyline points="330.8388922,618.3208452 330.8388922,622.3208452" stroke="rgb(60,60,60)" stroke-width="1" fill="none"/>
<text x="330.8388922" y="635.3208452" font-family="Helvetica,Arial,sans-serif" font-size="11" fill="rgb(60,60,60)" text-anchor="middle">2</text>
<polyline points="437.7753881,618.3208452 437.7753881,622.3208452" stroke="rgb(60,60,60)" stroke-width="1" fill="none"/>
<text x="437.7753881" y="635.3208452" font-family="Helvetica,Arial,sans-serif" font-size="11" fill="rgb(60,60,60)" text-anchor="middle">3</text>
<polyline points="544.7118839,618.3208452 544.7118839,622.3208452" stroke="rgb(60,60,60)" stroke-width="1" fill="none"/>
<text x="544.7118839" y="635.3208452" font-family="Helvetica,Arial,sans-serif" font-size="11" fill="rgb(60,60,60)" text-anchor="middle">4</text>
<polyline points="651.6483798,618.3208452 651.6483798,622.3208452" stroke="rgb(60,60,60)" stroke-width="1" fill="none"/>
<text x="651.6483798" y="635.3208452" font-family="Helvetica,Arial,sans-serif" font-size="11" fill="rgb(60,60,60)" text-anchor="middle">5</text>
<polyline points="758.5848757,618.3208452 758.5848757,622.3208452" stroke="rgb(60,60,60)" stroke-width="1" fill="none"/>
<text x="758.5848757" y="635.3208452" font-family="Helvetica,Arial,sans-serif" font-size="11" fill="rgb(60,60,60)" text-anchor="middle">6</text>
<polyline points="54,549.142571 58,549.142571" stroke="rgb(60,60,60)" stroke-width="1" fill="none"/>
<text x="50" y="553.142571" font-family="Helvetica,Arial,sans-serif" font-size="11" fill="rgb(60,60,60)" text-anchor="end">0</text>
<polyline points="54,442.2060752 58,442.2060752" stroke="rgb(60,60,60)" stroke-width="1" fill="none"/>
<text x="50" y="446.2060752" font-family="Helvetica,Arial,sans-serif" font-size="11" fill="rgb(60,60,60)" text-anchor="end">1</text>
<polyline points="54,335.2695793 58,335.2695793" stroke="rgb(60,60,60)" stroke-width="1" fill="none"/>
<text x="50" y="339.2695793" font-family="Helvetica,Arial,sans-serif" font-size="11" fill="rgb(60,60,60)" text-anchor="end">2</text>
<polyline points="54,228.3330834 58,228.3330834" stroke="rgb(60,60,60)" stroke-width="1" fill="none"/>
<text x="50" y="232.3330834" font-family="Helvetica,Arial,sans-serif" font-size="11" fill="rgb(60,60,60)" text-anchor="end">3</text>
<polyline points="54,121.3965876 58,121.3965876" stroke="rgb(60,60,60)" stroke-width="1" fill="none"/>
<text x="50" y="125.3965876" font-family="Helvetica,Arial,sans-serif" font-size="11" fill="rgb(60,60,60)" text-anchor="end">4</text>
<polyline points="54,14.46009172 58,14.46009172" stroke="rgb(60,60,60)" stroke-width="1" fill="none"/>
<text x="50" y="18.46009172" font-family="Helvetica,Arial,sans-serif" font-size="11" fill="rgb(60,60,60)" text-anchor="end">5</text>
</svg>
