<svg xmlns="http://www.w3.org/2000/svg" width="320" height="174.6086957" viewBox="0 0 320 174.6086957">
<rect x="0" y="0" width="320" height="174.6086957" fill="white"/>
<clipPath id="plotclip"><rect x="58" y="14" width="248" height="118.6086957"/></clipPath>
<g clip-path="url(#plotclip)">
<rect x="69.27272727" y="38.99604743" width="107.826087" height="88.22134387" stroke="rgb(0,114,178)" stroke-width="1.8" fill="rgb(0,114,178)" fill-opacity="0.25"/>
<rect x="206.5059289" y="19.39130435" width="88.22134387" height="78.41897233" stroke="rgb(213,94,0)" stroke-width="1.8" fill="rgb(213,94,0)" fill-opacity="0.25"/>
</g>
<rect x="58" y="14" width="248" height="118.6086957" stroke="rgb(60,60,60)" stroke-width="1" fill="none"/>
<polyline points="98.6798419,132.6086957 98.6798419,136.6086957" stroke="rgb(60,60,60)" stroke-width="1" fill="none"/>
<text x="98.6798419" y="149.6086957" font-family="Helvetica,Arial,sans-serif" font-size="11" fill="rgb(60,60,60)" text-anchor="middle">-0.5</text>
<polyline points="147.6916996,132.6086957 147.6916996,136.6086957" stroke="rgb(60,60,60)" stroke-width="1" fill="none"/>
<text x="147.6916996" y="149.6086957" font-family="Helvetica,Arial,sans-serif" font-size="11" fill="rgb(60,60,60)" text-anchor="middle">0</text>
<polyline points="196.7035573,132.6086957 196.7035573,136.6086957" stroke="rgb(60,60,60)" stroke-width="1" fill="none"/>
<text x="196.7035573" y="149.6086957" font-family="Helvetica,Arial,sans-serif" font-size="11" fill="rgb(60,60,60)" text-anchor="middle">0.5</text>
<polyline points="245.715415,132.6086957 245.715415,136.6086957" stroke="rgb(60,60,60)" stroke-width="1" fill="none"/>
<text x="245.715415" y="149.6086957" font-family="Helvetica,Arial,sans-serif" font-size="11" fill="rgb(60,60,60)" text-anchor="middle">1</text>
<polyline points="294.7272727,132.6086957 294.7272727,136.6086957" stroke="rgb(60,60,60)" stroke-width="1" fill="none"/>
<text x="294.7272727" y="149.6086957" font-family="Helvetica,Arial,sans-serif" font-size="11" fill="rgb(60,60,60)" text-anchor="middle">1.5</text>
<polyline points="54,117.4150198 58,117.4150198" stroke="rgb(60,60,60)" stroke-width="1" fill="none"/>
<text x="50" y="121.4150198" font-family="Helvetica,Arial,sans-serif" font-size="11" fill="rgb(60,60,60)" text-anchor="end">-0.4</text>
<polyline points="54,97.81027668 58,97.81027668" stroke="rgb(60,60,60)" stroke-width="1" fill="none"/>
<text x="50" y="101.8102767" font-family="Helvetica,Arial,sans-serif" font-size="11" fill="rgb(60,60,60)" text-anchor="end">-0.2</text>
<polyline points="54,78.2055336 58,78.2055336" stroke="rgb(60,60,60)" stroke-width="1" fill="none"/>
<text x="50" y="82.2055336" font-family="Helvetica,Arial,sans-serif" font-size="11" fill="rgb(60,60,60)" text-anchor="end">0</text>
<polyline points="54,58.60079051 58,58.60079051" stroke="rgb(60,60,60)" stroke-width="1" fill="none"/>
<text x="50" y="62.60079051" font-family="Helvetica,Arial,sans-serif" font-size="11" fill="rgb(60,60,60)" text-anchor="end">0.2</text>
<polyline points="54,38.99604743 58,38.99604743" stroke="rgb(60,60,60)" stroke-width="1" fill="none"/>
<text x="50" y="42.99604743" font-family="Helvetica,Arial,sans-serif" font-size="11" fill="rgb(60,60,60)" text-anchor="end">0.4</text>
<polyline points="54,19.39130435 58,19.39130435" stroke="rgb(60,60,60)" stroke-width="1" fill="none"/>
<text x="50" y="23.39130435" font-family="Helvetica,Arial,sans-serif" font-size="11" fill="rgb(60,60,60)" text-anchor="end">0.6</text>
</svg>
