<svg xmlns="http://www.w3.org/2000/svg" width="320" height="284.16" viewBox="0 0 320 284.16">
<rect x="0" y="0" width="320" height="284.16" fill="white"/>
<clipPath id="plotclip"><rect x="58" y="14" width="248" height="228.16"/></clipPath>
<g clip-path="url(#plotclip)">
<ellipse cx="0" cy="0" rx="63.12727273" ry="63.12727273" transform="translate(132.4 168.6618182) rotate(-0)" stroke="rgb(0,114,178)" stroke-width="1.8" fill="rgb(0,114,178)" fill-opacity="0.25"/>
<polygon points="213.5636364,114.5527273 294.7272727,87.49818182 240.6181818,24.37090909" stroke="rgb(213,94,0)" stroke-width="1.8" fill="rgb(213,94,0)" fill-opacity="0.25"/>
</g>
<rect x="58" y="14" width="248" height="228.16" stroke="rgb(60,60,60)" stroke-width="1" fill="none"/>
<polyline points="87.30909091,242.16 87.30909091,246.16" stroke="rgb(60,60,60)" stroke-width="1" fill="none"/>
<text x="87.30909091" y="259.16" font-family="Helvetica,Arial,sans-serif" font-size="11" fill="rgb(60,60,60)" text-anchor="middle">-0.5</text>
<polyline points="132.4,242.16 132.4,246.16" stroke="rgb(60,60,60)" stroke-width="1" fill="none"/>
<text x="132.4" y="259.16" font-family="Helvetica,Arial,sans-serif" font-size="11" fill="rgb(60,60,60)" text-anchor="middle">0</text>
<polyline points="177.4909091,242.16 177.4909091,246.16" stroke="rgb(60,60,60)" stroke-width="1" fill="none"/>
<text x="177.4909091" y="259.16" font-family="Helvetica,Arial,sans-serif" font-size="11" fill="rgb(60,60,60)" text-anchor="middle">0.5</text>
<polyline points="222.5818182,242.16 222.5818182,246.16" stroke="rgb(60,60,60)" stroke-width="1" fill="none"/>
<text x="222.5818182" y="259.16" font-family="Helvetica,Arial,sans-serif" font-size="11" fill="rgb(60,60,60)" text-anchor="middle">1</text>
<polyline points="267.6727273,242.16 267.6727273,246.16" stroke="rgb(60,60,60)" stroke-width="1" fill="none"/>
<text x="267.6727273" y="259.16" font-family="Helvetica,Arial,sans-serif" font-size="11" fill="rgb(60,60,60)" text-anchor="middle">1.5</text>
<polyline points="54,213.7527273 58,213.7527273" stroke="rgb(60,60,60)" stroke-width="1" fill="none"/>
<text x="50" y="217.7527273" font-family="Helvetica,Arial,sans-serif" font-size="11" fill="rgb(60,60,60)" text-anchor="end">-0.5</text>
<polyline points="54,168.6618182 58,168.6618182" stroke="rgb(60,60,60)" stroke-width="1" fill="none"/>
<text x="50" y="172.6618182" font-family="Helvetica,Arial,sans-serif" font-size="11" fill="rgb(60,60,60)" text-anchor="end">0</text>
<polyline points="54,123.5709091 58,123.5709091" stroke="rgb(60,60,60)" stroke-width="1" fill="none"/>
<text x="50" y="127.5709091" font-family="Helvetica,Arial,sans-serif" font-size="11" fill="rgb(60,60,60)" text-anchor="end">0.5</text>
<polyline points="54,78.48 58,78.48" stroke="rgb(60,60,60)" stroke-width="1" fill="none"/>
<text x="50" y="82.48" font-family="Helvetica,Arial,sans-serif" font-size="11" fill="rgb(60,60,60)" text-anchor="end">1</text>
<polyline points="54,33.38909091 58,33.38909091" stroke="rgb(60,60,60)" stroke-width="1" fill="none"/>
<text x="50" y="37.38909091" font-family="Helvetica,Arial,sans-serif" font-size="11" fill="rgb(60,60,60)" text-anchor="end">1.5</text>
</svg>
