<svg xmlns="http://www.w3.org/2000/svg" width="320" height="191.2727273" viewBox="0 0 320 191.2727273">
<rect x="0" y="0" width="320" height="191.2727273" fill="white"/>
<clipPath id="plotclip"><rect x="58" y="14" width="248" height="135.2727273"/></clipPath>
<g clip-path="url(#plotclip)">
<rect x="69.27272727" y="20.14876033" width="112.7272727" height="92.23140496" stroke="rgb(0,114,178)" stroke-width="1.8" fill="rgb(0,114,178)" fill-opacity="0.25"/>
<polyline points="212.7438017,143.1239669 294.7272727,40.6446281" stroke="rgb(213,94,0)" stroke-width="2.2" fill="none"/>
</g>
<rect x="58" y="14" width="248" height="135.2727273" stroke="rgb(60,60,60)" stroke-width="1" fill="none"/>
<polyline points="100.0165289,149.2727273 100.0165289,153.2727273" stroke="rgb(60,60,60)" stroke-width="1" fill="none"/>
<text x="100.0165289" y="166.2727273" font-family="Helvetica,Arial,sans-serif" font-size="11" fill="rgb(60,60,60)" text-anchor="middle">-0.5</text>
<polyline points="151.2561983,149.2727273 151.2561983,153.2727273" stroke="rgb(60,60,60)" stroke-width="1" fill="none"/>
<text x="151.2561983" y="166.2727273" font-family="Helvetica,Arial,sans-serif" font-size="11" fill="rgb(60,60,60)" text-anchor="middle">0</text>
<polyline points="202.4958678,149.2727273 202.4958678,153.2727273" stroke="rgb(60,60,60)" stroke-width="1" fill="none"/>
<text x="202.4958678" y="166.2727273" font-family="Helvetica,Arial,sans-serif" font-size="11" fill="rgb(60,60,60)" text-anchor="middle">0.5</text>
<polyline points="253.7355372,149.2727273 253.7355372,153.2727273" stroke="rgb(60,60,60)" stroke-width="1" fill="none"/>
<text x="253.7355372" y="166.2727273" font-family="Helvetica,Arial,sans-serif" font-size="11" fill="rgb(60,60,60)" text-anchor="middle">1</text>
<polyline points="304.9752066,149.2727273 304.9752066,153.2727273" stroke="rgb(60,60,60)" stroke-width="1" fill="none"/>
<text x="304.9752066" y="166.2727273" font-family="Helvetica,Arial,sans-serif" font-size="11" fill="rgb(60,60,60)" text-anchor="middle">1.5</text>
<polyline points="54,143.1239669 58,143.1239669" stroke="rgb(60,60,60)" stroke-width="1" fill="none"/>
<text x="50" y="147.1239669" font-family="Helvetica,Arial,sans-serif" font-size="11" fill="rgb(60,60,60)" text-anchor="end">-0.8</text>
<polyline points="54,122.6280992 58,122.6280992" stroke="rgb(60,60,60)" stroke-width="1" fill="none"/>
<text x="50" y="126.6280992" font-family="Helvetica,Arial,sans-serif" font-size="11" fill="rgb(60,60,60)" text-anchor="end">-0.6</text>
<polyline points="54,102.1322314 58,102.1322314" stroke="rgb(60,60,60)" stroke-width="1" fill="none"/>
<text x="50" y="106.1322314" font-family="Helvetica,Arial,sans-serif" font-size="11" fill="rgb(60,60,60)" text-anchor="end">-0.4</text>
<polyline points="54,81.63636364 58,81.63636364" stroke="rgb(60,60,60)" stroke-width="1" fill="none"/>
<text x="50" y="85.63636364" font-family="Helvetica,Arial,sans-serif" font-size="11" fill="rgb(60,60,60)" text-anchor="end">-0.2</text>
<polyline points="54,61.14049587 58,61.14049587" stroke="rgb(60,60,60)" stroke-width="1" fill="none"/>
<text x="50" y="65.14049587" font-family="Helvetica,Arial,sans-serif" font-size="11" fill="rgb(60,60,60)" text-anchor="end">0</text>
<polyline points="54,40.6446281 58,40.6446281" stroke="rgb(60,60,60)" stroke-width="1" fill="none"/>
<text x="50" y="44.6446281" font-family="Helvetica,Arial,sans-serif" font-size="11" fill="rgb(60,60,60)" text-anchor="end">0.2</text>
<polyline points="54,20.14876033 58,20.14876033" stroke="rgb(60,60,60)" stroke-width="1" fill="none"/>
<text x="50" y="24.14876033" font-family="Helvetica,Arial,sans-serif" font-size="11" fill="rgb(60,60,60)" text-anchor="end">0.4</text>
</svg>
