<svg xmlns="http://www.w3.org/2000/svg" width="320" height="304" viewBox="0 0 320 304">
<rect x="0" y="0" width="320" height="304" fill="white"/>
<clipPath id="plotclip"><rect x="58" y="14" width="248" height="248"/></clipPath>
<g clip-path="url(#plotclip)">
<polygon points="112.2164502,186.3116883 294.7272727,154.1038961 187.3679654,36.00865801" stroke="rgb(0,114,178)" stroke-width="1.8" fill="rgb(0,114,178)" fill-opacity="0.25"/>
<polyline points="69.27272727,250.7272727 251.7835498,25.27272727" stroke="rgb(213,94,0)" stroke-width="2.2" fill="none"/>
</g>
<rect x="58" y="14" width="248" height="248" stroke="rgb(60,60,60)" stroke-width="1" fill="none"/>
<polyline points="90.74458874,262 90.74458874,266" stroke="rgb(60,60,60)" stroke-width="1" fill="none"/>
<text x="90.74458874" y="279" font-family="Helvetica,Arial,sans-serif" font-size="11" fill="rgb(60,60,60)" text-anchor="middle">-1</text>
<polyline points="144.4242424,262 144.4242424,266" stroke="rgb(60,60,60)" stroke-width="1" fill="none"/>
<text x="144.4242424" y="279" font-family="Helvetica,Arial,sans-serif" font-size="11" fill="rgb(60,60,60)" text-anchor="middle">-0.5</text>
<polyline points="198.1038961,262 198.1038961,266" stroke="rgb(60,60,60)" stroke-width="1" fill="none"/>
<text x="198.1038961" y="279" font-family="Helvetica,Arial,sans-serif" font-size="11" fill="rgb(60,60,60)" text-anchor="middle">0</text>
<polyline points="251.7835498,262 251.7835498,266" stroke="rgb(60,60,60)" stroke-width="1" fill="none"/>
<text x="251.7835498" y="279" font-family="Helvetica,Arial,sans-serif" font-size="11" fill="rgb(60,60,60)" text-anchor="middle">0.5</text>
<polyline points="305.4632035,262 305.4632035,266" stroke="rgb(60,60,60)" stroke-width="1" fill="none"/>
<text x="305.4632035" y="279" font-family="Helvetica,Arial,sans-serif" font-size="11" fill="rgb(60,60,60)" text-anchor="middle">1</text>
<polyline points="54,229.2554113 58,229.2554113" stroke="rgb(60,60,60)" stroke-width="1" fill="none"/>
<text x="50" y="233.2554113" font-family="Helvetica,Arial,sans-serif" font-size="11" fill="rgb(60,60,60)" text-anchor="end">-1</text>
<polyline points="54,175.5757576 58,175.5757576" stroke="rgb(60,60,60)" stroke-width="1" fill="none"/>
<text x="50" y="179.5757576" font-family="Helvetica,Arial,sans-serif" font-size="11" fill="rgb(60,60,60)" text-anchor="end">-0.5</text>
<polyline points="54,121.8961039 58,121.8961039" stroke="rgb(60,60,60)" stroke-width="1" fill="none"/>
<text x="50" y="125.8961039" font-family="Helvetica,Arial,sans-serif" font-size="11" fill="rgb(60,60,60)" text-anchor="end">0</text>
<polyline points="54,68.21645022 58,68.21645022" stroke="rgb(60,60,60)" stroke-width="1" fill="none"/>
<text x="50" y="72.21645022" font-family="Helvetica,Arial,sans-serif" font-size="11" fill="rgb(60,60,60)" text-anchor="end">0.5</text>
<polyline points="54,14.53679654 58,14.53679654" stroke="rgb(60,60,60)" stroke-width="1" fill="none"/>
<text x="50" y="18.53679654" font-family="Helvetica,Arial,sans-serif" font-size="11" fill="rgb(60,60,60)" text-anchor="end">1</text>
</svg>
