<svg xmlns="http://www.w3.org/2000/svg" width="320" height="255.6097561" viewBox="0 0 320 255.6097561">
<rect x="0" y="0" width="320" height="255.6097561" fill="white"/>
<clipPath id="plotclip"><rect x="58" y="14" width="248" height="199.6097561"/></clipPath>
<g clip-path="url(#plotclip)">
<ellipse cx="0" cy="0" rx="76.98447894" ry="76.98447894" transform="translate(146.2572062 127.5521064) rotate(-0)" stroke="rgb(0,114,178)" stroke-width="1.8" fill="rgb(0,114,178)" fill-opacity="0.25"/>
<ellipse cx="0" cy="0" rx="49.49002217" ry="49.49002217" transform="translate(245.2372506 72.5631929) rotate(-0)" stroke="rgb(213,94,0)" stroke-width="1.8" fill="rgb(213,94,0)" fill-opacity="0.25"/>
</g>
<rect x="58" y="14" width="248" height="199.6097561" stroke="rgb(60,60,60)" stroke-width="1" fill="none"/>
<polyline points="91.26829268,213.6097561 91.26829268,217.6097561" stroke="rgb(60,60,60)" stroke-width="1" fill="none"/>
<text x="91.26829268" y="230.6097561" font-family="Helvetica,Arial,sans-serif" font-size="11" fill="rgb(60,60,60)" text-anchor="middle">-0.5</text>
<polyline points="146.2572062,213.6097561 146.2572062,217.6097561" stroke="rgb(60,60,60)" stroke-width="1" fill="none"/>
<text x="146.2572062" y="230.6097561" font-family="Helvetica,Arial,sans-serif" font-size="11" fill="rgb(60,60,60)" text-anchor="middle">0</text>
<polyline points="201.2461197,213.6097561 201.2461197,217.6097561" stroke="rgb(60,60,60)" stroke-width="1" fill="none"/>
<text x="201.2461197" y="230.6097561" font-family="Helvetica,Arial,sans-serif" font-size="11" fill="rgb(60,60,60)" text-anchor="middle">0.5</text>
<polyline points="256.2350333,213.6097561 256.2350333,217.6097561" stroke="rgb(60,60,60)" stroke-width="1" fill="none"/>
<text x="256.2350333" y="230.6097561" font-family="Helvetica,Arial,sans-serif" font-size="11" fill="rgb(60,60,60)" text-anchor="middle">1</text>
<polyline points="54,193.5388027 58,193.5388027" stroke="rgb(60,60,60)" stroke-width="1" fill="none"/>
<text x="50" y="197.5388027" font-family="Helvetica,Arial,sans-serif" font-size="11" fill="rgb(60,60,60)" text-anchor="end">-0.6</text>
<polyline points="54,171.5432373 58,171.5432373" stroke="rgb(60,60,60)" stroke-width="1" fill="none"/>
<text x="50" y="175.5432373" font-family="Helvetica,Arial,sans-serif" font-size="11" fill="rgb(60,60,60)" text-anchor="end">-0.4</text>
<polyline points="54,149.5476718 58,149.5476718" stroke="rgb(60,60,60)" stroke-width="1" fill="none"/>
<text x="50" y="153.5476718" font-family="Helvetica,Arial,sans-serif" font-size="11" fill="rgb(60,60,60)" text-anchor="end">-0.2</text>
<polyline points="54,127.5521064 58,127.5521064" stroke="rgb(60,60,60)" stroke-width="1" fill="none"/>
<text x="50" y="131.5521064" font-family="Helvetica,Arial,sans-serif" font-size="11" fill="rgb(60,60,60)" text-anchor="end">0</text>
<polyline points="54,105.556541 58,105.556541" stroke="rgb(60,60,60)" stroke-width="1" fill="none"/>
<text x="50" y="109.556541" font-family="Helvetica,Arial,sans-serif" font-size="11" fill="rgb(60,60,60)" text-anchor="end">0.2</text>
<polyline points="54,83.56097561 58,83.56097561" stroke="rgb(60,60,60)" stroke-width="1" fill="none"/>
<text x="50" y="87.56097561" font-family="Helvetica,Arial,sans-serif" font-size="11" fill="rgb(60,60,60)" text-anchor="end">0.4</text>
<polyline points="54,61.5654102 58,61.5654102" stroke="rgb(60,60,60)" stroke-width="1" fill="none"/>
<text x="50" y="65.5654102" font-family="Helvetica,Arial,sans-serif" font-size="11" fill="rgb(60,60,60)" text-anchor="end">0.6</text>
<polyline points="54,39.56984479 58,39.56984479" stroke="rgb(60,60,60)" stroke-width="1" fill="none"/>
<text x="50" y="43.56984479" font-family="Helvetica,Arial,sans-serif" font-size="11" fill="rgb(60,60,60)" text-anchor="end">0.8</text>
<polyline points="54,17.57427938 58,17.57427938" stroke="rgb(60,60,60)" stroke-width="1" fill="none"/>
<text x="50" y="21.57427938" font-family="Helvetica,Arial,sans-serif" font-size="11" fill="rgb(60,60,60)" text-anchor="end">1</text>
</svg>
