<svg xmlns="http://www.w3.org/2000/svg" width="780" height="626.9677419" viewBox="0 0 780 626.9677419">
<rect x="0" y="0" width="780" height="626.9677419" fill="white"/>
<clipPath id="plotclip"><rect x="58" y="14" width="708" height="570.9677419"/></clipPath>
<g clip-path="url(#plotclip)">
<polygon points="173.2316716,559.0146628 214.7565982,559.0146628 214.7565982,517.4897361" stroke="rgb(158,158,158)" stroke-width="0.7" fill="none"/>
<polygon points="173.2316716,559.0146628 214.7565982,517.4897361 173.2316716,517.4897361" stroke="rgb(158,158,158)" stroke-width="0.7" fill="none"/>
<polygon points="214.7565982,559.0146628 256.2815249,559.0146628 256.2815249,517.4897361" stroke="rgb(158,158,158)" stroke-width="0.7" fill="none"/>
<polygon points="214.7565982,559.0146628 256.2815249,517.4897361 214.7565982,517.4897361" stroke="rgb(158,158,158)" stroke-width="0.7" fill="none"/>
<polygon points="256.2815249,559.0146628 297.8064516,559.0146628 297.8064516,517.4897361" stroke="rgb(158,158,158)" stroke-width="0.7" fill="none"/>
<polygon points="256.2815249,559.0146628 297.8064516,517.4897361 256.2815249,517.4897361" stroke="rgb(158,158,158)" stroke-width="0.7" fill="none"/>
<polygon points="297.8064516,559.0146628 339.3313783,559.0146628 339.3313783,517.4897361" stroke="rgb(158,158,158)" stroke-width="0.7" fill="none"/>
<polygon points="297.8064516,559.0146628 339.3313783,517.4897361 297.8064516,517.4897361" stroke="rgb(158,158,158)" stroke-width="0.7" fill="none"/>
<polygon points="339.3313783,559.0146628 380.856305,559.0146628 380.856305,517.4897361" stroke="rgb(158,158,158)" stroke-width="0.7" fill="none"/>
<polygon points="339.3313783,559.0146628 380.856305,517.4897361 339.3313783,517.4897361" stroke="rgb(158,158,158)" stroke-width="0.7" fill="none"/>
<polygon points="380.856305,559.0146628 422.3812317,559.0146628 422.3812317,517.4897361" stroke="rgb(158,158,158)" stroke-width="0.7" fill="none"/>
<polygon points="380.856305,559.0146628 422.3812317,517.4897361 380.856305,517.4897361" stroke="rgb(158,158,158)" stroke-width="0.7" fill="none"/>
<polygon points="422.3812317,559.0146628 463.9061584,559.0146628 463.9061584,517.4897361" stroke="rgb(158,158,158)" stroke-width="0.7" fill="none"/>
<polygon points="422.3812317,559.0146628 463.9061584,517.4897361 422.3812317,517.4897361" stroke="rgb(158,158,158)" stroke-width="0.7" fill="none"/>
<polygon points="463.9061584,559.0146628 505.431085,559.0146628 505.431085,517.4897361" stroke="rgb(158,158,158)" stroke-width="0.7" fill="none"/>
<polygon points="463.9061584,559.0146628 505.431085,517.4897361 463.9061584,517.4897361" stroke="rgb(158,158,158)" stroke-width="0.7" fill="none"/>
<polygon points="505.431085,559.0146628 546.9560117,559.0146628 546.9560117,517.4897361" stroke="rgb(158,158,158)" stroke-width="0.7" fill="none"/>
<polygon points="505.431085,559.0146628 546.9560117,517.4897361 505.431085,517.4897361" stroke="rgb(158,158,158)" stroke-width="0.7" fill="none"/>
<polygon points="546.9560117,559.0146628 588.4809384,559.0146628 588.4809384,517.4897361" stroke="rgb(158,158,158)" stroke-width="0.7" fill="none"/>
<polygon points="546.9560117,559.0146628 588.4809384,517.4897361 546.9560117,517.4897361" stroke="rgb(158,158,158)" stroke-width="0.7" fill="none"/>
<polygon points="173.2316716,517.4897361 214.7565982,517.4897361 214.7565982,475.9648094" stroke="rgb(158,158,158)" stroke-width="0.7" fill="none"/>
<polygon points="173.2316716,517.4897361 214.7565982,475.9648094 173.2316716,475.9648094" stroke="rgb(158,158,158)" stroke-width="0.7" fill="none"/>
<polygon points="214.7565982,517.4897361 256.2815249,517.4897361 256.2815249,475.9648094" stroke="rgb(158,158,158)" stroke-width="0.7" fill="none"/>
<polygon points="214.7565982,517.4897361 256.2815249,475.9648094 214.7565982,475.9648094" stroke="rgb(158,158,158)" stroke-width="0.7" fill="none"/>
<polygon points="256.2815249,517.4897361 297.8064516,517.4897361 297.8064516,475.9648094" stroke="rgb(158,158,158)" stroke-width="0.7" fill="none"/>
<polygon points="256.2815249,517.4897361 297.8064516,475.9648094 256.2815249,475.9648094" stroke="rgb(158,158,158)" stroke-width="0.7" fill="none"/>
<polygon points="297.8064516,517.4897361 339.3313783,517.4897361 339.3313783,475.9648094" stroke="rgb(158,158,158)" stroke-width="0.7" fill="none"/>
<polygon points="297.8064516,517.4897361 339.3313783,475.9648094 297.8064516,475.9648094" stroke="rgb(158,158,158)" stroke-width="0.7" fill="none"/>
<polygon points="339.3313783,517.4897361 380.856305,517.4897361 380.856305,475.9648094" stroke="rgb(158,158,158)" stroke-width="0.7" fill="none"/>
<polygon points="339.3313783,517.4897361 380.856305,475.9648094 339.3313783,475.9648094" stroke="rgb(158,158,158)" stroke-width="0.7" fill="none"/>
<polygon points="380.856305,517.4897361 422.3812317,517.4897361 422.3812317,475.9648094" stroke="rgb(158,158,158)" stroke-width="0.7" fill="none"/>
<polygon points="380.856305,517.4897361 422.3812317,475.9648094 380.856305,475.9648094" stroke="rgb(158,158,158)" stroke-width="0.7" fill="none"/>
<polygon points="422.3812317,517.4897361 463.9061584,517.4897361 463.9061584,475.9648094" stroke="rgb(158,158,158)" stroke-width="0.7" fill="none"/>
<polygon points="422.3812317,517.4897361 463.9061584,475.9648094 422.3812317,475.9648094" stroke="rgb(158,158,158)" stroke-width="0.7" fill="none"/>
<polygon points="463.9061584,517.4897361 505.431085,517.4897361 505.431085,475.9648094" stroke="rgb(158,158,158)" stroke-width="0.7" fill="none"/>
<polygon points="463.9061584,517.4897361 505.431085,475.9648094 463.9061584,475.9648094" stroke="rgb(158,158,158)" stroke-width="0.7" fill="none"/>
<polygon points="505.431085,517.4897361 546.9560117,517.4897361 546.9560117,475.9648094" stroke="rgb(158,158,158)" stroke-width="0.7" fill="none"/>
<polygon points="505.431085,517.4897361 546.9560117,475.9648094 505.431085,475.9648094" stroke="rgb(158,158,158)" stroke-width="0.7" fill="none"/>
<polygon points="546.9560117,517.4897361 588.4809384,517.4897361 588.4809384,475.9648094" stroke="rgb(158,158,158)" stroke-width="0.7" fill="none"/>
<polygon points="546.9560117,517.4897361 588.4809384,475.9648094 546.9560117,475.9648094" stroke="rgb(158,158,158)" stroke-width="0.7" fill="none"/>
<polygon points="173.2316716,475.9648094 214.7565982,475.9648094 214.7565982,434.4398827" stroke="rgb(158,158,158)" stroke-width="0.7" fill="none"/>
<polygon points="173.2316716,475.9648094 214.7565982,434.4398827 173.2316716,434.4398827" stroke="rgb(158,158,158)" stroke-width="0.7" fill="none"/>
<polygon points="214.7565982,475.9648094 256.2815249,475.9648094 256.2815249,434.4398827" stroke="rgb(158,158,158)" stroke-width="0.7" fill="none"/>
<polygon points="214.7565982,475.9648094 256.2815249,434.4398827 214.7565982,434.4398827" stroke="rgb(158,158,158)" stroke-width="0.7" fill="none"/>
<polygon points="256.2815249,475.9648094 297.8064516,475.9648094 297.8064516,434.4398827" stroke="rgb(158,158,158)" stroke-width="0.7" fill="none"/>
<polygon points="256.2815249,475.9648094 297.8064516,434.4398827 256.2815249,434.4398827" stroke="rgb(158,158,158)" stroke-width="0.7" fill="none"/>
<polygon points="297.8064516,475.9648094 339.3313783,475.9648094 339.3313783,434.4398827" stroke="rgb(158,158,158)" stroke-width="0.7" fill="none"/>
<polygon points="297.8064516,475.9648094 339.3313783,434.4398827 297.8064516,434.4398827" stroke="rgb(158,158,158)" stroke-width="0.7" fill="none"/>
<polygon points="339.3313783,475.9648094 380.856305,475.9648094 380.856305,434.4398827" stroke="rgb(158,158,158)" stroke-width="0.7" fill="none"/>
<polygon points="339.3313783,475.9648094 380.856305,434.4398827 339.3313783,434.4398827" stroke="rgb(158,158,158)" stroke-width="0.7" fill="none"/>
<polygon points="380.856305,475.9648094 422.3812317,475.9648094 422.3812317,434.4398827" stroke="rgb(158,158,158)" stroke-width="0.7" fill="none"/>
<polygon points="380.856305,475.9648094 422.3812317,434.4398827 380.856305,434.4398827" stroke="rgb(158,158,158)" stroke-width="0.7" fill="none"/>
<polygon points="422.3812317,475.9648094 463.9061584,475.9648094 463.9061584,434.4398827" stroke="rgb(158,158,158)" stroke-width="0.7" fill="none"/>
<polygon points="422.3812317,475.9648094 463.9061584,434.4398827 422.3812317,434.4398827" stroke="rgb(158,158,158)" stroke-width="0.7" fill="none"/>
<polygon points="463.9061584,475.9648094 505.431085,475.9648094 505.431085,434.4398827" stroke="rgb(158,158,158)" stroke-width="0.7" fill="none"/>
<polygon points="463.9061584,475.9648094 505.431085,434.4398827 463.9061584,434.4398827" stroke="rgb(158,158,158)" stroke-width="0.7" fill="none"/>
<polygon points="505.431085,475.9648094 546.9560117,475.9648094 546.9560117,434.4398827" stroke="rgb(158,158,158)" stroke-width="0.7" fill="none"/>
<polygon points="505.431085,475.9648094 546.9560117,434.4398827 505.431085,434.4398827" stroke="rgb(158,158,158)" stroke-width="0.7" fill="none"/>
<polygon points="546.9560117,475.9648094 588.4809384,475.9648094 588.4809384,434.4398827" stroke="rgb(158,158,158)" stroke-width="0.7" fill="none"/>
<polygon points="546.9560117,475.9648094 588.4809384,434.4398827 546.9560117,434.4398827" stroke="rgb(158,158,158)" stroke-width="0.7" fill="none"/>
<polygon points="173.2316716,434.4398827 214.7565982,434.4398827 214.7565982,392.914956" stroke="rgb(158,158,158)" stroke-width="0.7" fill="none"/>
<polygon points="173.2316716,434.4398827 214.7565982,392.914956 173.2316716,392.914956" stroke="rgb(158,158,158)" stroke-width="0.7" fill="none"/>
<polygon points="214.7565982,434.4398827 256.2815249,434.4398827 256.2815249,392.914956" stroke="rgb(158,158,158)" stroke-width="0.7" fill="none"/>
<polygon points="214.7565982,434.4398827 256.2815249,392.914956 214.7565982,392.914956" stroke="rgb(158,158,158)" stroke-width="0.7" fill="none"/>
<polygon points="256.2815249,434.4398827 297.8064516,434.4398827 297.8064516,392.914956" stroke="rgb(158,158,158)" stroke-width="0.7" fill="none"/>
<polygon points="256.2815249,434.4398827 297.8064516,392.914956 256.2815249,392.914956" stroke="rgb(158,158,158)" stroke-width="0.7" fill="none"/>
<polygon points="297.8064516,434.4398827 339.3313783,434.4398827 339.3313783,392.914956" stroke="rgb(158,158,158)" stroke-width="0.7" fill="none"/>
<polygon points="297.8064516,434.4398827 339.3313783,392.914956 297.8064516,392.914956" stroke="rgb(158,158,158)" stroke-width="0.7" fill="none"/>
<polygon points="339.3313783,434.4398827 380.856305,434.4398827 380.856305,392.914956" stroke="rgb(158,158,158)" stroke-width="0.7" fill="none"/>
<polygon points="339.3313783,434.4398827 380.856305,392.914956 339.3313783,392.914956" stroke="rgb(158,158,158)" stroke-width="0.7" fill="none"/>
<polygon points="380.856305,434.4398827 422.3812317,434.4398827 422.3812317,392.914956" stroke="rgb(158,158,158)" stroke-width="0.7" fill="none"/>
<polygon points="380.856305,434.4398827 422.3812317,392.914956 380.856305,392.914956" stroke="rgb(158,158,158)" stroke-width="0.7" fill="none"/>
<polygon points="422.3812317,434.4398827 463.9061584,434.4398827 463.9061584,392.914956" stroke="rgb(158,158,158)" stroke-width="0.7" fill="none"/>
<polygon points="422.3812317,434.4398827 463.9061584,392.914956 422.3812317,392.914956" stroke="rgb(158,158,158)" stroke-width="0.7" fill="none"/>
<polygon points="463.9061584,434.4398827 505.431085,434.4398827 505.431085,392.914956" stroke="rgb(158,158,158)" stroke-width="0.7" fill="none"/>
<polygon points="463.9061584,434.4398827 505.431085,392.914956 463.9061584,392.914956" stroke="rgb(158,158,158)" stroke-width="0.7" fill="none"/>
<polygon points="505.431085,434.4398827 546.9560117,434.4398827 546.9560117,392.914956" stroke="rgb(158,158,158)" stroke-width="0.7" fill="none"/>
<polygon points="505.431085,434.4398827 546.9560117,392.914956 505.431085,392.914956" stroke="rgb(158,158,158)" stroke-width="0.7" fill="none"/>
<polygon points="546.9560117,434.4398827 588.4809384,434.4398827 588.4809384,392.914956" stroke="rgb(158,158,158)" stroke-width="0.7" fill="none"/>
<polygon points="546.9560117,434.4398827 588.4809384,392.914956 546.9560117,392.914956" stroke="rgb(158,158,158)" stroke-width="0.7" fill="none"/>
<polygon points="173.2316716,392.914956 214.7565982,392.914956 214.7565982,351.3900293" stroke="rgb(158,158,158)" stroke-width="0.7" fill="none"/>
<polygon points="173.2316716,392.914956 214.7565982,351.3900293 173.2316716,351.3900293" stroke="rgb(158,158,158)" stroke-width="0.7" fill="none"/>
<polygon points="214.7565982,392.914956 256.2815249,392.914956 256.2815249,351.3900293" stroke="rgb(158,158,158)" stroke-width="0.7" fill="none"/>
<polygon points="214.7565982,392.914956 256.2815249,351.3900293 214.7565982,351.3900293" stroke="rgb(158,158,158)" stroke-width="0.7" fill="none"/>
<polygon points="256.2815249,392.914956 297.8064516,392.914956 297.8064516,351.3900293" stroke="rgb(158,158,158)" stroke-width="0.7" fill="none"/>
<polygon points="256.2815249,392.914956 297.8064516,351.3900293 256.2815249,351.3900293" stroke="rgb(158,158,158)" stroke-width="0.7" fill="none"/>
<polygon points="297.8064516,392.914956 339.3313783,392.914956 339.3313783,351.3900293" stroke="rgb(158,158,158)" stroke-width="0.7" fill="none"/>
<polygon points="297.8064516,392.914956 339.3313783,351.3900293 297.8064516,351.3900293" stroke="rgb(158,158,158)" stroke-width="0.7" fill="none"/>
<polygon points="339.3313783,392.914956 380.856305,392.914956 380.856305,351.3900293" stroke="rgb(158,158,158)" stroke-width="0.7" fill="none"/>
<polygon points="339.3313783,392.914956 380.856305,351.3900293 339.3313783,351.3900293" stroke="rgb(158,158,158)" stroke-width="0.7" fill="none"/>
<polygon points="380.856305,392.914956 422.3812317,392.914956 422.3812317,351.3900293" stroke="rgb(158,158,158)" stroke-width="0.7" fill="none"/>
<polygon points="380.856305,392.914956 422.3812317,351.3900293 380.856305,351.3900293" stroke="rgb(158,158,158)" stroke-width="0.7" fill="none"/>
<polygon points="422.3812317,392.914956 463.9061584,392.914956 463.9061584,351.3900293" stroke="rgb(158,158,158)" stroke-width="0.7" fill="none"/>
<polygon points="422.3812317,392.914956 463.9061584,351.3900293 422.3812317,351.3900293" stroke="rgb(158,158,158)" stroke-width="0.7" fill="none"/>
<polygon points="463.9061584,392.914956 505.431085,392.914956 505.431085,351.3900293" stroke="rgb(158,158,158)" stroke-width="0.7" fill="none"/>
<polygon points="463.9061584,392.914956 505.431085,351.3900293 463.9061584,351.3900293" stroke="rgb(158,158,158)" stroke-width="0.7" fill="none"/>
<polygon points="505.431085,392.914956 546.9560117,392.914956 546.9560117,351.3900293" stroke="rgb(158,158,158)" stroke-width="0.7" fill="none"/>
<polygon points="505.431085,392.914956 546.9560117,351.3900293 505.431085,351.3900293" stroke="rgb(158,158,158)" stroke-width="0.7" fill="none"/>
<polygon points="546.9560117,392.914956 588.4809384,392.914956 588.4809384,351.3900293" stroke="rgb(158,158,158)" stroke-width="0.7" fill="none"/>
<polygon points="546.9560117,392.914956 588.4809384,351.3900293 546.9560117,351.3900293" stroke="rgb(158,158,158)" stroke-width="0.7" fill="none"/>
<polygon points="173.2316716,351.3900293 214.7565982,351.3900293 214.7565982,309.8651026" stroke="rgb(158,158,158)" stroke-width="0.7" fill="none"/>
<polygon points="173.2316716,351.3900293 214.7565982,309.8651026 173.2316716,309.8651026" stroke="rgb(158,158,158)" stroke-width="0.7" fill="none"/>
<polygon points="214.7565982,351.3900293 256.2815249,351.3900293 256.2815249,309.8651026" stroke="rgb(158,158,158)" stroke-width="0.7" fill="none"/>
<polygon points="214.7565982,351.3900293 256.2815249,309.8651026 214.7565982,309.8651026" stroke="rgb(158,158,158)" stroke-width="0.7" fill="none"/>
<polygon points="256.2815249,351.3900293 297.8064516,351.3900293 297.8064516,309.8651026" stroke="rgb(158,158,158)" stroke-width="0.7" fill="none"/>
<polygon points="256.2815249,351.3900293 297.8064516,309.8651026 256.2815249,309.8651026" stroke="rgb(158,158,158)" stroke-width="0.7" fill="none"/>
<polygon points="297.8064516,351.3900293 339.3313783,351.3900293 339.3313783,309.8651026" stroke="rgb(158,158,158)" stroke-width="0.7" fill="none"/>
<polygon points="297.8064516,351.3900293 339.3313783,309.8651026 297.8064516,309.8651026" stroke="rgb(158,158,158)" stroke-width="0.7" fill="none"/>
<polygon points="339.3313783,351.3900293 380.856305,351.3900293 380.856305,309.8651026" stroke="rgb(158,158,158)" stroke-width="0.7" fill="none"/>
<polygon points="339.3313783,351.3900293 380.856305,309.8651026 339.3313783,309.8651026" stroke="rgb(158,158,158)" stroke-width="0.7" fill="none"/>
<polygon points="380.856305,351.3900293 422.3812317,351.3900293 422.3812317,309.8651026" stroke="rgb(158,158,158)" stroke-width="0.7" fill="none"/>
<polygon points="380.856305,351.3900293 422.3812317,309.8651026 380.856305,309.8651026" stroke="rgb(158,158,158)" stroke-width="0.7" fill="none"/>
<polygon points="422.3812317,351.3900293 463.9061584,351.3900293 463.9061584,309.8651026" stroke="rgb(158,158,158)" stroke-width="0.7" fill="none"/>
<polygon points="422.3812317,351.3900293 463.9061584,309.8651026 422.3812317,309.8651026" stroke="rgb(158,158,158)" stroke-width="0.7" fill="none"/>
<polygon points="463.9061584,351.3900293 505.431085,351.3900293 505.431085,309.8651026" stroke="rgb(158,158,158)" stroke-width="0.7" fill="none"/>
<polygon points="463.9061584,351.3900293 505.431085,309.8651026 463.9061584,309.8651026" stroke="rgb(158,158,158)" stroke-width="0.7" fill="none"/>
<polygon points="505.431085,351.3900293 546.9560117,351.3900293 546.9560117,309.8651026" stroke="rgb(158,158,158)" stroke-width="0.7" fill="none"/>
<polygon points="505.431085,351.3900293 546.9560117,309.8651026 505.431085,309.8651026" stroke="rgb(158,158,158)" stroke-width="0.7" fill="none"/>
<polygon points="546.9560117,351.3900293 588.4809384,351.3900293 588.4809384,309.8651026" stroke="rgb(158,158,158)" stroke-width="0.7" fill="none"/>
<polygon points="546.9560117,351.3900293 588.4809384,309.8651026 546.9560117,309.8651026" stroke="rgb(158,158,158)" stroke-width="0.7" fill="none"/>
<polygon points="173.2316716,309.8651026 214.7565982,309.8651026 214.7565982,268.340176" stroke="rgb(158,158,158)" stroke-width="0.7" fill="none"/>
<polygon points="173.2316716,309.8651026 214.7565982,268.340176 173.2316716,268.340176" stroke="rgb(158,158,158)" stroke-width="0.7" fill="none"/>
<polygon points="214.7565982,309.8651026 256.2815249,309.8651026 256.2815249,268.340176" stroke="rgb(158,158,158)" stroke-width="0.7" fill="none"/>
<polygon points="214.7565982,309.8651026 256.2815249,268.340176 214.7565982,268.340176" stroke="rgb(158,158,158)" stroke-width="0.7" fill="none"/>
<polygon points="256.2815249,309.8651026 297.8064516,309.8651026 297.8064516,268.340176" stroke="rgb(158,158,158)" stroke-width="0.7" fill="none"/>
<polygon points="256.2815249,309.8651026 297.8064516,268.340176 256.2815249,268.340176" stroke="rgb(158,158,158)" stroke-width="0.7" fill="none"/>
<polygon points="297.8064516,309.8651026 339.3313783,309.8651026 339.3313783,268.340176" stroke="rgb(158,158,158)" stroke-width="0.7" fill="none"/>
<polygon points="297.8064516,309.8651026 339.3313783,268.340176 297.8064516,268.340176" stroke="rgb(158,158,158)" stroke-width="0.7" fill="none"/>
<polygon points="339.3313783,309.8651026 380.856305,309.8651026 380.856305,268.340176" stroke="rgb(158,158,158)" stroke-width="0.7" fill="none"/>
<polygon points="339.3313783,309.8651026 380.856305,268.340176 339.3313783,268.340176" stroke="rgb(158,158,158)" stroke-width="0.7" fill="none"/>
<polygon points="380.856305,309.8651026 422.3812317,309.8651026 422.3812317,268.340176" stroke="rgb(158,158,158)" stroke-width="0.7" fill="none"/>
<polygon points="380.856305,309.8651026 422.3812317,268.340176 380.856305,268.340176" stroke="rgb(158,158,158)" stroke-width="0.7" fill="none"/>
<polygon points="422.3812317,309.8651026 463.9061584,309.8651026 463.9061584,268.340176" stroke="rgb(158,158,158)" stroke-width="0.7" fill="none"/>
<polygon points="422.3812317,309.8651026 463.9061584,268.340176 422.3812317,268.340176" stroke="rgb(158,158,158)" stroke-width="0.7" fill="none"/>
<polygon points="463.9061584,309.8651026 505.431085,309.8651026 505.431085,268.340176" stroke="rgb(158,158,158)" stroke-width="0.7" fill="none"/>
<polygon points="463.9061584,309.8651026 505.431085,268.340176 463.9061584,268.340176" stroke="rgb(158,158,158)" stroke-width="0.7" fill="none"/>
<polygon points="505.431085,309.8651026 546.9560117,309.8651026 546.9560117,268.340176" stroke="rgb(158,158,158)" stroke-width="0.7" fill="none"/>
<polygon points="505.431085,309.8651026 546.9560117,268.340176 505.431085,268.340176" stroke="rgb(158,158,158)" stroke-width="0.7" fill="none"/>
<polygon points="546.9560117,309.8651026 588.4809384,309.8651026 588.4809384,268.340176" stroke="rgb(158,158,158)" stroke-width="0.7" fill="none"/>
<polygon points="546.9560117,309.8651026 588.4809384,268.340176 546.9560117,268.340176" stroke="rgb(158,158,158)" stroke-width="0.7" fill="none"/>
<polygon points="173.2316716,268.340176 214.7565982,268.340176 214.7565982,226.8152493" stroke="rgb(158,158,158)" stroke-width="0.7" fill="none"/>
<polygon points="173.2316716,268.340176 214.7565982,226.8152493 173.2316716,226.8152493" stroke="rgb(158,158,158)" stroke-width="0.7" fill="none"/>
<polygon points="214.7565982,268.340176 256.2815249,268.340176 256.2815249,226.8152493" stroke="rgb(158,158,158)" stroke-width="0.7" fill="none"/>
<polygon points="214.7565982,268.340176 256.2815249,226.8152493 214.7565982,226.8152493" stroke="rgb(158,158,158)" stroke-width="0.7" fill="none"/>
<polygon points="256.2815249,268.340176 297.8064516,268.340176 297.8064516,226.8152493" stroke="rgb(158,158,158)" stroke-width="0.7" fill="none"/>
<polygon points="256.2815249,268.340176 297.8064516,226.8152493 256.2815249,226.8152493" stroke="rgb(158,158,158)" stroke-width="0.7" fill="none"/>
<polygon points="297.8064516,268.340176 339.3313783,268.340176 339.3313783,226.8152493" stroke="rgb(158,158,158)" stroke-width="0.7" fill="none"/>
<polygon points="297.8064516,268.340176 339.3313783,226.8152493 297.8064516,226.8152493" stroke="rgb(158,158,158)" stroke-width="0.7" fill="none"/>
<polygon points="339.3313783,268.340176 380.856305,268.340176 380.856305,226.8152493" stroke="rgb(158,158,158)" stroke-width="0.7" fill="none"/>
<polygon points="339.3313783,268.340176 380.856305,226.8152493 339.3313783,226.8152493" stroke="rgb(158,158,158)" stroke-width="0.7" fill="none"/>
<polygon points="380.856305,268.340176 422.3812317,268.340176 422.3812317,226.8152493" stroke="rgb(158,158,158)" stroke-width="0.7" fill="none"/>
<polygon points="380.856305,268.340176 422.3812317,226.8152493 380.856305,226.8152493" stroke="rgb(158,158,158)" stroke-width="0.7" fill="none"/>
<polygon points="422.3812317,268.340176 463.9061584,268.340176 463.9061584,226.8152493" stroke="rgb(158,158,158)" stroke-width="0.7" fill="none"/>
<polygon points="422.3812317,268.340176 463.9061584,226.8152493 422.3812317,226.8152493" stroke="rgb(158,158,158)" stroke-width="0.7" fill="none"/>
<polygon points="463.9061584,268.340176 505.431085,268.340176 505.431085,226.8152493" stroke="rgb(158,158,158)" stroke-width="0.7" fill="none"/>
<polygon points="463.9061584,268.340176 505.431085,226.8152493 463.9061584,226.8152493" stroke="rgb(158,158,158)" stroke-width="0.7" fill="none"/>
<polygon points="505.431085,268.340176 546.9560117,268.340176 546.9560117,226.8152493" stroke="rgb(158,158,158)" stroke-width="0.7" fill="none"/>
<polygon points="505.431085,268.340176 546.9560117,226.8152493 505.431085,226.8152493" stroke="rgb(158,158,158)" stroke-width="0.7" fill="none"/>
<polygon points="546.9560117,268.340176 588.4809384,268.340176 588.4809384,226.8152493" stroke="rgb(158,158,158)" stroke-width="0.7" fill="none"/>
<polygon points="546.9560117,268.340176 588.4809384,226.8152493 546.9560117,226.8152493" stroke="rgb(158,158,158)" stroke-width="0.7" fill="none"/>
<polygon points="173.2316716,226.8152493 214.7565982,226.8152493 214.7565982,185.2903226" stroke="rgb(158,158,158)" stroke-width="0.7" fill="none"/>
<polygon points="173.2316716,226.8152493 214.7565982,185.2903226 173.2316716,185.2903226" stroke="rgb(158,158,158)" stroke-width="0.7" fill="none"/>
<polygon points="214.7565982,226.8152493 256.2815249,226.8152493 256.2815249,185.2903226" stroke="rgb(158,158,158)" stroke-width="0.7" fill="none"/>
<polygon points="214.7565982,226.8152493 256.2815249,185.2903226 214.7565982,185.2903226" stroke="rgb(158,158,158)" stroke-width="0.7" fill="none"/>
<polygon points="256.2815249,226.8152493 297.8064516,226.8152493 297.8064516,185.2903226" stroke="rgb(158,158,158)" stroke-width="0.7" fill="none"/>
<polygon points="256.2815249,226.8152493 297.8064516,185.2903226 256.2815249,185.2903226" stroke="rgb(158,158,158)" stroke-width="0.7" fill="none"/>
<polygon points="297.8064516,226.8152493 339.3313783,226.8152493 339.3313783,185.2903226" stroke="rgb(158,158,158)" stroke-width="0.7" fill="none"/>
<polygon points="297.8064516,226.8152493 339.3313783,185.2903226 297.8064516,185.2903226" stroke="rgb(158,158,158)" stroke-width="0.7" fill="none"/>
<polygon points="339.3313783,226.8152493 380.856305,226.8152493 380.856305,185.2903226" stroke="rgb(158,158,158)" stroke-width="0.7" fill="none"/>
<polygon points="339.3313783,226.8152493 380.856305,185.2903226 339.3313783,185.2903226" stroke="rgb(158,158,158)" stroke-width="0.7" fill="none"/>
<polygon points="380.856305,226.8152493 422.3812317,226.8152493 422.3812317,185.2903226" stroke="rgb(158,158,158)" stroke-width="0.7" fill="none"/>
<polygon points="380.856305,226.8152493 422.3812317,185.2903226 380.856305,185.2903226" stroke="rgb(158,158,158)" stroke-width="0.7" fill="none"/>
<polygon points="422.3812317,226.8152493 463.9061584,226.8152493 463.9061584,185.2903226" stroke="rgb(158,158,158)" stroke-width="0.7" fill="none"/>
<polygon points="422.3812317,226.8152493 463.9061584,185.2903226 422.3812317,185.2903226" stroke="rgb(158,158,158)" stroke-width="0.7" fill="none"/>
<polygon points="463.9061584,226.8152493 505.431085,226.8152493 505.431085,185.2903226" stroke="rgb(158,158,158)" stroke-width="0.7" fill="none"/>
<polygon points="463.9061584,226.8152493 505.431085,185.2903226 463.9061584,185.2903226" stroke="rgb(158,158,158)" stroke-width="0.7" fill="none"/>
<polygon points="505.431085,226.8152493 546.9560117,226.8152493 546.9560117,185.2903226" stroke="rgb(158,158,158)" stroke-width="0.7" fill="none"/>
<polygon points="505.431085,226.8152493 546.9560117,185.2903226 505.431085,185.2903226" stroke="rgb(158,158,158)" stroke-width="0.7" fill="none"/>
<polygon points="546.9560117,226.8152493 588.4809384,226.8152493 588.4809384,185.2903226" stroke="rgb(158,158,158)" stroke-width="0.7" fill="none"/>
<polygon points="546.9560117,226.8152493 588.4809384,185.2903226 546.9560117,185.2903226" stroke="rgb(158,158,158)" stroke-width="0.7" fill="none"/>
<polygon points="173.2316716,185.2903226 214.7565982,185.2903226 214.7565982,143.7653959" stroke="rgb(158,158,158)" stroke-width="0.7" fill="none"/>
<polygon points="173.2316716,185.2903226 214.7565982,143.7653959 173.2316716,143.7653959" stroke="rgb(158,158,158)" stroke-width="0.7" fill="none"/>
<polygon points="214.7565982,185.2903226 256.2815249,185.2903226 256.2815249,143.7653959" stroke="rgb(158,158,158)" stroke-width="0.7" fill="none"/>
<polygon points="214.7565982,185.2903226 256.2815249,143.7653959 214.7565982,143.7653959" stroke="rgb(158,158,158)" stroke-width="0.7" fill="none"/>
<polygon points="256.2815249,185.2903226 297.8064516,185.2903226 297.8064516,143.7653959" stroke="rgb(158,158,158)" stroke-width="0.7" fill="none"/>
<polygon points="256.2815249,185.2903226 297.8064516,143.7653959 256.2815249,143.7653959" stroke="rgb(158,158,158)" stroke-width="0.7" fill="none"/>
<polygon points="297.8064516,185.2903226 339.3313783,185.2903226 339.3313783,143.7653959" stroke="rgb(158,158,158)" stroke-width="0.7" fill="none"/>
<polygon points="297.8064516,185.2903226 339.3313783,143.7653959 297.8064516,143.7653959" stroke="rgb(158,158,158)" stroke-width="0.7" fill="none"/>
<polygon points="339.3313783,185.2903226 380.856305,185.2903226 380.856305,143.7653959" stroke="rgb(158,158,158)" stroke-width="0.7" fill="none"/>
<polygon points="339.3313783,185.2903226 380.856305,143.7653959 339.3313783,143.7653959" stroke="rgb(158,158,158)" stroke-width="0.7" fill="none"/>
<polygon points="380.856305,185.2903226 422.3812317,185.2903226 422.3812317,143.7653959" stroke="rgb(158,158,158)" stroke-width="0.7" fill="none"/>
<polygon points="380.856305,185.2903226 422.3812317,143.7653959 380.856305,143.7653959" stroke="rgb(158,158,158)" stroke-width="0.7" fill="none"/>
<polygon points="422.3812317,185.2903226 463.9061584,185.2903226 463.9061584,143.7653959" stroke="rgb(158,158,158)" stroke-width="0.7" fill="none"/>
<polygon points="422.3812317,185.2903226 463.9061584,143.7653959 422.3812317,143.7653959" stroke="rgb(158,158,158)" stroke-width="0.7" fill="none"/>
<polygon points="463.9061584,185.2903226 505.431085,185.2903226 505.431085,143.7653959" stroke="rgb(158,158,158)" stroke-width="0.7" fill="none"/>
<polygon points="463.9061584,185.2903226 505.431085,143.7653959 463.9061584,143.7653959" stroke="rgb(158,158,158)" stroke-width="0.7" fill="none"/>
<polygon points="505.431085,185.2903226 546.9560117,185.2903226 546.9560117,143.7653959" stroke="rgb(158,158,158)" stroke-width="0.7" fill="none"/>
<polygon points="505.431085,185.2903226 546.9560117,143.7653959 505.431085,143.7653959" stroke="rgb(158,158,158)" stroke-width="0.7" fill="none"/>
<polygon points="546.9560117,185.2903226 588.4809384,185.2903226 588.4809384,143.7653959" stroke="rgb(158,158,158)" stroke-width="0.7" fill="none"/>
<polygon points="546.9560117,185.2903226 588.4809384,143.7653959 546.9560117,143.7653959" stroke="rgb(158,158,158)" stroke-width="0.7" fill="none"/>
<polygon points="505.431085,309.8651026 546.9560117,309.8651026 546.9560117,268.340176" stroke="rgb(213,94,0)" stroke-width="1.2" fill="rgb(213,94,0)" fill-opacity="0.35"/>
<polygon points="505.431085,309.8651026 546.9560117,268.340176 505.431085,268.340176" stroke="rgb(213,94,0)" stroke-width="1.2" fill="rgb(213,94,0)" fill-opacity="0.35"/>
<polygon points="463.9061584,309.8651026 505.431085,309.8651026 505.431085,268.340176" stroke="rgb(213,94,0)" stroke-width="1.2" fill="rgb(213,94,0)" fill-opacity="0.35"/>
<polygon points="463.9061584,351.3900293 505.431085,309.8651026 463.9061584,309.8651026" stroke="rgb(213,94,0)" stroke-width="1.2" fill="rgb(213,94,0)" fill-opacity="0.35"/>
<polygon points="422.3812317,351.3900293 463.9061584,309.8651026 422.3812317,309.8651026" stroke="rgb(213,94,0)" stroke-width="1.2" fill="rgb(213,94,0)" fill-opacity="0.35"/>
<polygon points="505.431085,351.3900293 546.9560117,309.8651026 505.431085,309.8651026" stroke="rgb(213,94,0)" stroke-width="1.2" fill="rgb(213,94,0)" fill-opacity="0.35"/>
<polygon points="463.9061584,351.3900293 505.431085,351.3900293 505.431085,309.8651026" stroke="rgb(213,94,0)" stroke-width="1.2" fill="rgb(213,94,0)" fill-opacity="0.35"/>
<polygon points="463.9061584,392.914956 505.431085,351.3900293 463.9061584,351.3900293" stroke="rgb(213,94,0)" stroke-width="1.2" fill="rgb(213,94,0)" fill-opacity="0.35"/>
<polygon points="422.3812317,351.3900293 463.9061584,351.3900293 463.9061584,309.8651026" stroke="rgb(213,94,0)" stroke-width="1.2" fill="rgb(213,94,0)" fill-opacity="0.35"/>
<polygon points="422.3812317,392.914956 463.9061584,351.3900293 422.3812317,351.3900293" stroke="rgb(213,94,0)" stroke-width="1.2" fill="rgb(213,94,0)" fill-opacity="0.35"/>
<polygon points="380.856305,351.3900293 422.3812317,351.3900293 422.3812317,309.8651026" stroke="rgb(213,94,0)" stroke-width="1.2" fill="rgb(213,94,0)" fill-opacity="0.35"/>
<polygon points="422.3812317,392.914956 463.9061584,392.914956 463.9061584,351.3900293" stroke="rgb(213,94,0)" stroke-width="1.2" fill="rgb(213,94,0)" fill-opacity="0.35"/>
<polygon points="380.856305,392.914956 422.3812317,351.3900293 380.856305,351.3900293" stroke="rgb(213,94,0)" stroke-width="1.2" fill="rgb(213,94,0)" fill-opacity="0.35"/>
<polygon points="380.856305,392.914956 422.3812317,392.914956 422.3812317,351.3900293" stroke="rgb(213,94,0)" stroke-width="1.2" fill="rgb(213,94,0)" fill-opacity="0.35"/>
<polygon points="380.856305,434.4398827 422.3812317,392.914956 380.856305,392.914956" stroke="rgb(213,94,0)" stroke-width="1.2" fill="rgb(213,94,0)" fill-opacity="0.35"/>
<polygon points="339.3313783,392.914956 380.856305,392.914956 380.856305,351.3900293" stroke="rgb(213,94,0)" stroke-width="1.2" fill="rgb(213,94,0)" fill-opacity="0.35"/>
<polygon points="339.3313783,392.914956 380.856305,351.3900293 339.3313783,351.3900293" stroke="rgb(213,94,0)" stroke-width="1.2" fill="rgb(213,94,0)" fill-opacity="0.35"/>
<polygon points="339.3313783,434.4398827 380.856305,392.914956 339.3313783,392.914956" stroke="rgb(213,94,0)" stroke-width="1.2" fill="rgb(213,94,0)" fill-opacity="0.35"/>
<polygon points="339.3313783,434.4398827 380.856305,434.4398827 380.856305,392.914956" stroke="rgb(213,94,0)" stroke-width="1.2" fill="rgb(213,94,0)" fill-opacity="0.35"/>
<polygon points="297.8064516,434.4398827 339.3313783,392.914956 297.8064516,392.914956" stroke="rgb(213,94,0)" stroke-width="1.2" fill="rgb(213,94,0)" fill-opacity="0.35"/>
<polygon points="297.8064516,475.9648094 339.3313783,434.4398827 297.8064516,434.4398827" stroke="rgb(213,94,0)" stroke-width="1.2" fill="rgb(213,94,0)" fill-opacity="0.35"/>
<polygon points="297.8064516,392.914956 339.3313783,392.914956 339.3313783,351.3900293" stroke="rgb(213,94,0)" stroke-width="1.2" fill="rgb(213,94,0)" fill-opacity="0.35"/>
<polygon points="297.8064516,434.4398827 339.3313783,434.4398827 339.3313783,392.914956" stroke="rgb(213,94,0)" stroke-width="1.2" fill="rgb(213,94,0)" fill-opacity="0.35"/>
<polygon points="256.2815249,434.4398827 297.8064516,434.4398827 297.8064516,392.914956" stroke="rgb(213,94,0)" stroke-width="1.2" fill="rgb(213,94,0)" fill-opacity="0.35"/>
<polygon points="256.2815249,475.9648094 297.8064516,475.9648094 297.8064516,434.4398827" stroke="rgb(213,94,0)" stroke-width="1.2" fill="rgb(213,94,0)" fill-opacity="0.35"/>
<polygon points="256.2815249,475.9648094 297.8064516,434.4398827 256.2815249,434.4398827" stroke="rgb(213,94,0)" stroke-width="1.2" fill="rgb(213,94,0)" fill-opacity="0.35"/>
<ellipse cx="0" cy="0" rx="124.5747801" ry="26.2626696" transform="translate(401.6187683 372.1524927) rotate(-28.64788976)" stroke="rgb(0,114,178)" stroke-width="2" fill="none"/>
<circle cx="268.7390029" cy="417.829912" r="4" stroke="none" fill="rgb(0,114,178)"/>
<circle cx="385.0087977" cy="260.0351906" r="4" stroke="none" fill="rgb(0,114,178)"/>
<circle cx="534.4985337" cy="509.1847507" r="4" stroke="none" fill="rgb(0,114,178)"/>
<polyline points="733.8181818,434.4398827 588.4809384,434.4398827" stroke="rgb(0,158,115)" stroke-width="1.6" fill="none"/>
<circle cx="733.8181818" cy="434.4398827" r="4" stroke="none" fill="rgb(0,158,115)"/>
<polyline points="90.18181818,39.95307918 173.2316716,143.7653959" stroke="rgb(0,158,115)" stroke-width="1.6" fill="none"/>
<circle cx="90.18181818" cy="39.95307918" r="4" stroke="none" fill="rgb(0,158,115)"/>
</g>
<rect x="58" y="14" width="708" height="570.9677419" stroke="rgb(60,60,60)" stroke-width="1" fill="none"/>
<polyline points="90.18181818,584.9677419 90.18181818,588.9677419" stroke="rgb(60,60,60)" stroke-width="1" fill="none"/>
<text x="90.18181818" y="601.9677419" font-family="Helvetica,Arial,sans-serif" font-size="11" fill="rgb(60,60,60)" text-anchor="middle">-0.2</text>
<polyline points="173.2316716,584.9677419 173.2316716,588.9677419" stroke="rgb(60,60,60)" stroke-width="1" fill="none"/>
<text x="173.2316716" y="601.9677419" font-family="Helvetica,Arial,sans-serif" font-size="11" fill="rgb(60,60,60)" text-anchor="middle">0</text>
<polyline points="256.2815249,584.9677419 256.2815249,588.9677419" stroke="rgb(60,60,60)" stroke-width="1" fill="none"/>
<text x="256.2815249" y="601.9677419" font-family="Helvetica,Arial,sans-serif" font-size="11" fill="rgb(60,60,60)" text-anchor="middle">0.2</text>
<polyline points="339.3313783,584.9677419 339.3313783,588.9677419" stroke="rgb(60,60,60)" stroke-width="1" fill="none"/>
<text x="339.3313783" y="601.9677419" font-family="Helvetica,Arial,sans-serif" font-size="11" fill="rgb(60,60,60)" text-anchor="middle">0.4</text>
<polyline points="422.3812317,584.9677419 422.3812317,588.9677419" stroke="rgb(60,60,60)" stroke-width="1" fill="none"/>
<text x="422.3812317" y="601.9677419" font-family="Helvetica,Arial,sans-serif" font-size="11" fill="rgb(60,60,60)" text-anchor="middle">0.6</text>
<polyline points="505.431085,584.9677419 505.431085,588.9677419" stroke="rgb(60,60,60)" stroke-width="1" fill="none"/>
<text x="505.431085" y="601.9677419" font-family="Helvetica,Arial,sans-serif" font-size="11" fill="rgb(60,60,60)" text-anchor="middle">0.8</text>
<polyline points="588.4809384,584.9677419 588.4809384,588.9677419" stroke="rgb(60,60,60)" stroke-width="1" fill="none"/>
<text x="588.4809384" y="601.9677419" font-family="Helvetica,Arial,sans-serif" font-size="11" fill="rgb(60,60,60)" text-anchor="middle">1</text>
<polyline points="671.5307918,584.9677419 671.5307918,588.9677419" stroke="rgb(60,60,60)" stroke-width="1" fill="none"/>
<text x="671.5307918" y="601.9677419" font-family="Helvetica,Arial,sans-serif" font-size="11" fill="rgb(60,60,60)" text-anchor="middle">1.2</text>
<polyline points="754.5806452,584.9677419 754.5806452,588.9677419" stroke="rgb(60,60,60)" stroke-width="1" fill="none"/>
<text x="754.5806452" y="601.9677419" font-family="Helvetica,Arial,sans-serif" font-size="11" fill="rgb(60,60,60)" text-anchor="middle">1.4</text>
<polyline points="54,559.0146628 58,559.0146628" stroke="rgb(60,60,60)" stroke-width="1" fill="none"/>
<text x="50" y="563.0146628" font-family="Helvetica,Arial,sans-serif" font-size="11" fill="rgb(60,60,60)" text-anchor="end">0</text>
<polyline points="54,475.9648094 58,475.9648094" stroke="rgb(60,60,60)" stroke-width="1" fill="none"/>
<text x="50" y="479.9648094" font-family="Helvetica,Arial,sans-serif" font-size="11" fill="rgb(60,60,60)" text-anchor="end">0.2</text>
<polyline points="54,392.914956 58,392.914956" stroke="rgb(60,60,60)" stroke-width="1" fill="none"/>
<text x="50" y="396.914956" font-family="Helvetica,Arial,sans-serif" font-size="11" fill="rgb(60,60,60)" text-anchor="end">0.4</text>
<polyline points="54,309.8651026 58,309.8651026" stroke="rgb(60,60,60)" stroke-width="1" fill="none"/>
<text x="50" y="313.8651026" font-family="Helvetica,Arial,sans-serif" font-size="11" fill="rgb(60,60,60)" text-anchor="end">0.6</text>
<polyline points="54,226.8152493 58,226.8152493" stroke="rgb(60,60,60)" stroke-width="1" fill="none"/>
<text x="50" y="230.8152493" font-family="Helvetica,Arial,sans-serif" font-size="11" fill="rgb(60,60,60)" text-anchor="end">0.8</text>
<polyline points="54,143.7653959 58,143.7653959" stroke="rgb(60,60,60)" stroke-width="1" fill="none"/>
<text x="50" y="147.7653959" font-family="Helvetica,Arial,sans-serif" font-size="11" fill="rgb(60,60,60)" text-anchor="end">1</text>
<polyline points="54,60.71554252 58,60.71554252" stroke="rgb(60,60,60)" stroke-width="1" fill="none"/>
<text x="50" y="64.71554252" font-family="Helvetica,Arial,sans-serif" font-size="11" fill="rgb(60,60,60)" text-anchor="end">1.2</text>
</svg>
