<svg xmlns="http://www.w3.org/2000/svg" width="780" height="707.36" viewBox="0 0 780 707.36">
<rect x="0" y="0" width="780" height="707.36" fill="white"/>
<clipPath id="plotclip"><rect x="58" y="14" width="708" height="651.36"/></clipPath>
<g clip-path="url(#plotclip)">
<polygon points="90.18181818,635.7527273 154.5454545,635.7527273 154.5454545,571.3890909" stroke="rgb(158,158,158)" stroke-width="0.7" fill="none"/>
<polygon points="90.18181818,635.7527273 154.5454545,571.3890909 90.18181818,571.3890909" stroke="rgb(158,158,158)" stroke-width="0.7" fill="none"/>
<polygon points="154.5454545,635.7527273 218.9090909,635.7527273 218.9090909,571.3890909" stroke="rgb(158,158,158)" stroke-width="0.7" fill="none"/>
<polygon points="154.5454545,635.7527273 218.9090909,571.3890909 154.5454545,571.3890909" stroke="rgb(158,158,158)" stroke-width="0.7" fill="none"/>
<polygon points="218.9090909,635.7527273 283.2727273,635.7527273 283.2727273,571.3890909" stroke="rgb(158,158,158)" stroke-width="0.7" fill="none"/>
<polygon points="218.9090909,635.7527273 283.2727273,571.3890909 218.9090909,571.3890909" stroke="rgb(158,158,158)" stroke-width="0.7" fill="none"/>
<polygon points="283.2727273,635.7527273 347.6363636,635.7527273 347.6363636,571.3890909" stroke="rgb(158,158,158)" stroke-width="0.7" fill="none"/>
<polygon points="283.2727273,635.7527273 347.6363636,571.3890909 283.2727273,571.3890909" stroke="rgb(158,158,158)" stroke-width="0.7" fill="none"/>
<polygon points="347.6363636,635.7527273 412,635.7527273 412,571.3890909" stroke="rgb(158,158,158)" stroke-width="0.7" fill="none"/>
<polygon points="347.6363636,635.7527273 412,571.3890909 347.6363636,571.3890909" stroke="rgb(158,158,158)" stroke-width="0.7" fill="none"/>
<polygon points="412,635.7527273 476.3636364,635.7527273 476.3636364,571.3890909" stroke="rgb(158,158,158)" stroke-width="0.7" fill="none"/>
<polygon points="412,635.7527273 476.3636364,571.3890909 412,571.3890909" stroke="rgb(158,158,158)" stroke-width="0.7" fill="none"/>
<polygon points="476.3636364,635.7527273 540.7272727,635.7527273 540.7272727,571.3890909" stroke="rgb(158,158,158)" stroke-width="0.7" fill="none"/>
<polygon points="476.3636364,635.7527273 540.7272727,571.3890909 476.3636364,571.3890909" stroke="rgb(158,158,158)" stroke-width="0.7" fill="none"/>
<polygon points="540.7272727,635.7527273 605.0909091,635.7527273 605.0909091,571.3890909" stroke="rgb(158,158,158)" stroke-width="0.7" fill="none"/>
<polygon points="540.7272727,635.7527273 605.0909091,571.3890909 540.7272727,571.3890909" stroke="rgb(158,158,158)" stroke-width="0.7" fill="none"/>
<polygon points="90.18181818,571.3890909 154.5454545,571.3890909 154.5454545,507.0254545" stroke="rgb(158,158,158)" stroke-width="0.7" fill="none"/>
<polygon points="90.18181818,571.3890909 154.5454545,507.0254545 90.18181818,507.0254545" stroke="rgb(158,158,158)" stroke-width="0.7" fill="none"/>
<polygon points="154.5454545,571.3890909 218.9090909,571.3890909 218.9090909,507.0254545" stroke="rgb(158,158,158)" stroke-width="0.7" fill="none"/>
<polygon points="154.5454545,571.3890909 218.9090909,507.0254545 154.5454545,507.0254545" stroke="rgb(158,158,158)" stroke-width="0.7" fill="none"/>
<polygon points="218.9090909,571.3890909 283.2727273,571.3890909 283.2727273,507.0254545" stroke="rgb(158,158,158)" stroke-width="0.7" fill="none"/>
<polygon points="218.9090909,571.3890909 283.2727273,507.0254545 218.9090909,507.0254545" stroke="rgb(158,158,158)" stroke-width="0.7" fill="none"/>
<polygon points="283.2727273,571.3890909 347.6363636,571.3890909 347.6363636,507.0254545" stroke="rgb(158,158,158)" stroke-width="0.7" fill="none"/>
<polygon points="283.2727273,571.3890909 347.6363636,507.0254545 283.2727273,507.0254545" stroke="rgb(158,158,158)" stroke-width="0.7" fill="none"/>
<polygon points="347.6363636,571.3890909 412,571.3890909 412,507.0254545" stroke="rgb(158,158,158)" stroke-width="0.7" fill="none"/>
<polygon points="347.6363636,571.3890909 412,507.0254545 347.6363636,507.0254545" stroke="rgb(158,158,158)" stroke-width="0.7" fill="none"/>
<polygon points="412,571.3890909 476.3636364,571.3890909 476.3636364,507.0254545" stroke="rgb(158,158,158)" stroke-width="0.7" fill="none"/>
<polygon points="412,571.3890909 476.3636364,507.0254545 412,507.0254545" stroke="rgb(158,158,158)" stroke-width="0.7" fill="none"/>
<polygon points="476.3636364,571.3890909 540.7272727,571.3890909 540.7272727,507.0254545" stroke="rgb(158,158,158)" stroke-width="0.7" fill="none"/>
<polygon points="476.3636364,571.3890909 540.7272727,507.0254545 476.3636364,507.0254545" stroke="rgb(158,158,158)" stroke-width="0.7" fill="none"/>
<polygon points="540.7272727,571.3890909 605.0909091,571.3890909 605.0909091,507.0254545" stroke="rgb(158,158,158)" stroke-width="0.7" fill="none"/>
<polygon points="540.7272727,571.3890909 605.0909091,507.0254545 540.7272727,507.0254545" stroke="rgb(158,158,158)" stroke-width="0.7" fill="none"/>
<polygon points="90.18181818,507.0254545 154.5454545,507.0254545 154.5454545,442.6618182" stroke="rgb(158,158,158)" stroke-width="0.7" fill="none"/>
<polygon points="90.18181818,507.0254545 154.5454545,442.6618182 90.18181818,442.6618182" stroke="rgb(158,158,158)" stroke-width="0.7" fill="none"/>
<polygon points="154.5454545,507.0254545 218.9090909,507.0254545 218.9090909,442.6618182" stroke="rgb(158,158,158)" stroke-width="0.7" fill="none"/>
<polygon points="154.5454545,507.0254545 218.9090909,442.6618182 154.5454545,442.6618182" stroke="rgb(158,158,158)" stroke-width="0.7" fill="none"/>
<polygon points="218.9090909,507.0254545 283.2727273,507.0254545 283.2727273,442.6618182" stroke="rgb(158,158,158)" stroke-width="0.7" fill="none"/>
<polygon points="218.9090909,507.0254545 283.2727273,442.6618182 218.9090909,442.6618182" stroke="rgb(158,158,158)" stroke-width="0.7" fill="none"/>
<polygon points="283.2727273,507.0254545 347.6363636,507.0254545 347.6363636,442.6618182" stroke="rgb(158,158,158)" stroke-width="0.7" fill="none"/>
<polygon points="283.2727273,507.0254545 347.6363636,442.6618182 283.2727273,442.6618182" stroke="rgb(158,158,158)" stroke-width="0.7" fill="none"/>
<polygon points="347.6363636,507.0254545 412,507.0254545 412,442.6618182" stroke="rgb(158,158,158)" stroke-width="0.7" fill="none"/>
<polygon points="347.6363636,507.0254545 412,442.6618182 347.6363636,442.6618182" stroke="rgb(158,158,158)" stroke-width="0.7" fill="none"/>
<polygon points="412,507.0254545 476.3636364,507.0254545 476.3636364,442.6618182" stroke="rgb(158,158,158)" stroke-width="0.7" fill="none"/>
<polygon points="412,507.0254545 476.3636364,442.6618182 412,442.6618182" stroke="rgb(158,158,158)" stroke-width="0.7" fill="none"/>
<polygon points="476.3636364,507.0254545 540.7272727,507.0254545 540.7272727,442.6618182" stroke="rgb(158,158,158)" stroke-width="0.7" fill="none"/>
<polygon points="476.3636364,507.0254545 540.7272727,442.6618182 476.3636364,442.6618182" stroke="rgb(158,158,158)" stroke-width="0.7" fill="none"/>
<polygon points="540.7272727,507.0254545 605.0909091,507.0254545 605.0909091,442.6618182" stroke="rgb(158,158,158)" stroke-width="0.7" fill="none"/>
<polygon points="540.7272727,507.0254545 605.0909091,442.6618182 540.7272727,442.6618182" stroke="rgb(158,158,158)" stroke-width="0.7" fill="none"/>
<polygon points="90.18181818,442.6618182 154.5454545,442.6618182 154.5454545,378.2981818" stroke="rgb(158,158,158)" stroke-width="0.7" fill="none"/>
<polygon points="90.18181818,442.6618182 154.5454545,378.2981818 90.18181818,378.2981818" stroke="rgb(158,158,158)" stroke-width="0.7" fill="none"/>
<polygon points="154.5454545,442.6618182 218.9090909,442.6618182 218.9090909,378.2981818" stroke="rgb(158,158,158)" stroke-width="0.7" fill="none"/>
<polygon points="154.5454545,442.6618182 218.9090909,378.2981818 154.5454545,378.2981818" stroke="rgb(158,158,158)" stroke-width="0.7" fill="none"/>
<polygon points="218.9090909,442.6618182 283.2727273,442.6618182 283.2727273,378.2981818" stroke="rgb(158,158,158)" stroke-width="0.7" fill="none"/>
<polygon points="218.9090909,442.6618182 283.2727273,378.2981818 218.9090909,378.2981818" stroke="rgb(158,158,158)" stroke-width="0.7" fill="none"/>
<polygon points="283.2727273,442.6618182 347.6363636,442.6618182 347.6363636,378.2981818" stroke="rgb(158,158,158)" stroke-width="0.7" fill="none"/>
<polygon points="283.2727273,442.6618182 347.6363636,378.2981818 283.2727273,378.2981818" stroke="rgb(158,158,158)" stroke-width="0.7" fill="none"/>
<polygon points="347.6363636,442.6618182 412,442.6618182 412,378.2981818" stroke="rgb(158,158,158)" stroke-width="0.7" fill="none"/>
<polygon points="347.6363636,442.6618182 412,378.2981818 347.6363636,378.2981818" stroke="rgb(158,158,158)" stroke-width="0.7" fill="none"/>
<polygon points="412,442.6618182 476.3636364,442.6618182 476.3636364,378.2981818" stroke="rgb(158,158,158)" stroke-width="0.7" fill="none"/>
<polygon points="412,442.6618182 476.3636364,378.2981818 412,378.2981818" stroke="rgb(158,158,158)" stroke-width="0.7" fill="none"/>
<polygon points="476.3636364,442.6618182 540.7272727,442.6618182 540.7272727,378.2981818" stroke="rgb(158,158,158)" stroke-width="0.7" fill="none"/>
<polygon points="476.3636364,442.6618182 540.7272727,378.2981818 476.3636364,378.2981818" stroke="rgb(158,158,158)" stroke-width="0.7" fill="none"/>
<polygon points="540.7272727,442.6618182 605.0909091,442.6618182 605.0909091,378.2981818" stroke="rgb(158,158,158)" stroke-width="0.7" fill="none"/>
<polygon points="540.7272727,442.6618182 605.0909091,378.2981818 540.7272727,378.2981818" stroke="rgb(158,158,158)" stroke-width="0.7" fill="none"/>
<polygon points="90.18181818,378.2981818 154.5454545,378.2981818 154.5454545,313.9345455" stroke="rgb(158,158,158)" stroke-width="0.7" fill="none"/>
<polygon points="90.18181818,378.2981818 154.5454545,313.9345455 90.18181818,313.9345455" stroke="rgb(158,158,158)" stroke-width="0.7" fill="none"/>
<polygon points="154.5454545,378.2981818 218.9090909,378.2981818 218.9090909,313.9345455" stroke="rgb(158,158,158)" stroke-width="0.7" fill="none"/>
<polygon points="154.5454545,378.2981818 218.9090909,313.9345455 154.5454545,313.9345455" stroke="rgb(158,158,158)" stroke-width="0.7" fill="none"/>
<polygon points="218.9090909,378.2981818 283.2727273,378.2981818 283.2727273,313.9345455" stroke="rgb(158,158,158)" stroke-width="0.7" fill="none"/>
<polygon points="218.9090909,378.2981818 283.2727273,313.9345455 218.9090909,313.9345455" stroke="rgb(158,158,158)" stroke-width="0.7" fill="none"/>
<polygon points="283.2727273,378.2981818 347.6363636,378.2981818 347.6363636,313.9345455" stroke="rgb(158,158,158)" stroke-width="0.7" fill="none"/>
<polygon points="283.2727273,378.2981818 347.6363636,313.9345455 283.2727273,313.9345455" stroke="rgb(158,158,158)" stroke-width="0.7" fill="none"/>
<polygon points="347.6363636,378.2981818 412,378.2981818 412,313.9345455" stroke="rgb(158,158,158)" stroke-width="0.7" fill="none"/>
<polygon points="347.6363636,378.2981818 412,313.9345455 347.6363636,313.9345455" stroke="rgb(158,158,158)" stroke-width="0.7" fill="none"/>
<polygon points="412,378.2981818 476.3636364,378.2981818 476.3636364,313.9345455" stroke="rgb(158,158,158)" stroke-width="0.7" fill="none"/>
<polygon points="412,378.2981818 476.3636364,313.9345455 412,313.9345455" stroke="rgb(158,158,158)" stroke-width="0.7" fill="none"/>
<polygon points="476.3636364,378.2981818 540.7272727,378.2981818 540.7272727,313.9345455" stroke="rgb(158,158,158)" stroke-width="0.7" fill="none"/>
<polygon points="476.3636364,378.2981818 540.7272727,313.9345455 476.3636364,313.9345455" stroke="rgb(158,158,158)" stroke-width="0.7" fill="none"/>
<polygon points="540.7272727,378.2981818 605.0909091,378.2981818 605.0909091,313.9345455" stroke="rgb(158,158,158)" stroke-width="0.7" fill="none"/>
<polygon points="540.7272727,378.2981818 605.0909091,313.9345455 540.7272727,313.9345455" stroke="rgb(158,158,158)" stroke-width="0.7" fill="none"/>
<polygon points="90.18181818,313.9345455 154.5454545,313.9345455 154.5454545,249.5709091" stroke="rgb(158,158,158)" stroke-width="0.7" fill="none"/>
<polygon points="90.18181818,313.9345455 154.5454545,249.5709091 90.18181818,249.5709091" stroke="rgb(158,158,158)" stroke-width="0.7" fill="none"/>
<polygon points="154.5454545,313.9345455 218.9090909,313.9345455 218.9090909,249.5709091" stroke="rgb(158,158,158)" stroke-width="0.7" fill="none"/>
<polygon points="154.5454545,313.9345455 218.9090909,249.5709091 154.5454545,249.5709091" stroke="rgb(158,158,158)" stroke-width="0.7" fill="none"/>
<polygon points="218.9090909,313.9345455 283.2727273,313.9345455 283.2727273,249.5709091" stroke="rgb(158,158,158)" stroke-width="0.7" fill="none"/>
<polygon points="218.9090909,313.9345455 283.2727273,249.5709091 218.9090909,249.5709091" stroke="rgb(158,158,158)" stroke-width="0.7" fill="none"/>
<polygon points="283.2727273,313.9345455 347.6363636,313.9345455 347.6363636,249.5709091" stroke="rgb(158,158,158)" stroke-width="0.7" fill="none"/>
<polygon points="283.2727273,313.9345455 347.6363636,249.5709091 283.2727273,249.5709091" stroke="rgb(158,158,158)" stroke-width="0.7" fill="none"/>
<polygon points="347.6363636,313.9345455 412,313.9345455 412,249.5709091" stroke="rgb(158,158,158)" stroke-width="0.7" fill="none"/>
<polygon points="347.6363636,313.9345455 412,249.5709091 347.6363636,249.5709091" stroke="rgb(158,158,158)" stroke-width="0.7" fill="none"/>
<polygon points="412,313.9345455 476.3636364,313.9345455 476.3636364,249.5709091" stroke="rgb(158,158,158)" stroke-width="0.7" fill="none"/>
<polygon points="412,313.9345455 476.3636364,249.5709091 412,249.5709091" stroke="rgb(158,158,158)" stroke-width="0.7" fill="none"/>
<polygon points="476.3636364,313.9345455 540.7272727,313.9345455 540.7272727,249.5709091" stroke="rgb(158,158,158)" stroke-width="0.7" fill="none"/>
<polygon points="476.3636364,313.9345455 540.7272727,249.5709091 476.3636364,249.5709091" stroke="rgb(158,158,158)" stroke-width="0.7" fill="none"/>
<polygon points="540.7272727,313.9345455 605.0909091,313.9345455 605.0909091,249.5709091" stroke="rgb(158,158,158)" stroke-width="0.7" fill="none"/>
<polygon points="540.7272727,313.9345455 605.0909091,249.5709091 540.7272727,249.5709091" stroke="rgb(158,158,158)" stroke-width="0.7" fill="none"/>
<polygon points="90.18181818,249.5709091 154.5454545,249.5709091 154.5454545,185.2072727" stroke="rgb(158,158,158)" stroke-width="0.7" fill="none"/>
<polygon points="90.18181818,249.5709091 154.5454545,185.2072727 90.18181818,185.2072727" stroke="rgb(158,158,158)" stroke-width="0.7" fill="none"/>
<polygon points="154.5454545,249.5709091 218.9090909,249.5709091 218.9090909,185.2072727" stroke="rgb(158,158,158)" stroke-width="0.7" fill="none"/>
<polygon points="154.5454545,249.5709091 218.9090909,185.2072727 154.5454545,185.2072727" stroke="rgb(158,158,158)" stroke-width="0.7" fill="none"/>
<polygon points="218.9090909,249.5709091 283.2727273,249.5709091 283.2727273,185.2072727" stroke="rgb(158,158,158)" stroke-width="0.7" fill="none"/>
<polygon points="218.9090909,249.5709091 283.2727273,185.2072727 218.9090909,185.2072727" stroke="rgb(158,158,158)" stroke-width="0.7" fill="none"/>
<polygon points="283.2727273,249.5709091 347.6363636,249.5709091 347.6363636,185.2072727" stroke="rgb(158,158,158)" stroke-width="0.7" fill="none"/>
<polygon points="283.2727273,249.5709091 347.6363636,185.2072727 283.2727273,185.2072727" stroke="rgb(158,158,158)" stroke-width="0.7" fill="none"/>
<polygon points="347.6363636,249.5709091 412,249.5709091 412,185.2072727" stroke="rgb(158,158,158)" stroke-width="0.7" fill="none"/>
<polygon points="347.6363636,249.5709091 412,185.2072727 347.6363636,185.2072727" stroke="rgb(158,158,158)" stroke-width="0.7" fill="none"/>
<polygon points="412,249.5709091 476.3636364,249.5709091 476.3636364,185.2072727" stroke="rgb(158,158,158)" stroke-width="0.7" fill="none"/>
<polygon points="412,249.5709091 476.3636364,185.2072727 412,185.2072727" stroke="rgb(158,158,158)" stroke-width="0.7" fill="none"/>
<polygon points="476.3636364,249.5709091 540.7272727,249.5709091 540.7272727,185.2072727" stroke="rgb(158,158,158)" stroke-width="0.7" fill="none"/>
<polygon points="476.3636364,249.5709091 540.7272727,185.2072727 476.3636364,185.2072727" stroke="rgb(158,158,158)" stroke-width="0.7" fill="none"/>
<polygon points="540.7272727,249.5709091 605.0909091,249.5709091 605.0909091,185.2072727" stroke="rgb(158,158,158)" stroke-width="0.7" fill="none"/>
<polygon points="540.7272727,249.5709091 605.0909091,185.2072727 540.7272727,185.2072727" stroke="rgb(158,158,158)" stroke-width="0.7" fill="none"/>
<polygon points="90.18181818,185.2072727 154.5454545,185.2072727 154.5454545,120.8436364" stroke="rgb(158,158,158)" stroke-width="0.7" fill="none"/>
<polygon points="90.18181818,185.2072727 154.5454545,120.8436364 90.18181818,120.8436364" stroke="rgb(158,158,158)" stroke-width="0.7" fill="none"/>
<polygon points="154.5454545,185.2072727 218.9090909,185.2072727 218.9090909,120.8436364" stroke="rgb(158,158,158)" stroke-width="0.7" fill="none"/>
<polygon points="154.5454545,185.2072727 218.9090909,120.8436364 154.5454545,120.8436364" stroke="rgb(158,158,158)" stroke-width="0.7" fill="none"/>
<polygon points="218.9090909,185.2072727 283.2727273,185.2072727 283.2727273,120.8436364" stroke="rgb(158,158,158)" stroke-width="0.7" fill="none"/>
<polygon points="218.9090909,185.2072727 283.2727273,120.8436364 218.9090909,120.8436364" stroke="rgb(158,158,158)" stroke-width="0.7" fill="none"/>
<polygon points="283.2727273,185.2072727 347.6363636,185.2072727 347.6363636,120.8436364" stroke="rgb(158,158,158)" stroke-width="0.7" fill="none"/>
<polygon points="283.2727273,185.2072727 347.6363636,120.8436364 283.2727273,120.8436364" stroke="rgb(158,158,158)" stroke-width="0.7" fill="none"/>
<polygon points="347.6363636,185.2072727 412,185.2072727 412,120.8436364" stroke="rgb(158,158,158)" stroke-width="0.7" fill="none"/>
<polygon points="347.6363636,185.2072727 412,120.8436364 347.6363636,120.8436364" stroke="rgb(158,158,158)" stroke-width="0.7" fill="none"/>
<polygon points="412,185.2072727 476.3636364,185.2072727 476.3636364,120.8436364" stroke="rgb(158,158,158)" stroke-width="0.7" fill="none"/>
<polygon points="412,185.2072727 476.3636364,120.8436364 412,120.8436364" stroke="rgb(158,158,158)" stroke-width="0.7" fill="none"/>
<polygon points="476.3636364,185.2072727 540.7272727,185.2072727 540.7272727,120.8436364" stroke="rgb(158,158,158)" stroke-width="0.7" fill="none"/>
<polygon points="476.3636364,185.2072727 540.7272727,120.8436364 476.3636364,120.8436364" stroke="rgb(158,158,158)" stroke-width="0.7" fill="none"/>
<polygon points="540.7272727,185.2072727 605.0909091,185.2072727 605.0909091,120.8436364" stroke="rgb(158,158,158)" stroke-width="0.7" fill="none"/>
<polygon points="540.7272727,185.2072727 605.0909091,120.8436364 540.7272727,120.8436364" stroke="rgb(158,158,158)" stroke-width="0.7" fill="none"/>
<polygon points="283.2727273,507.0254545 347.6363636,507.0254545 347.6363636,442.6618182" stroke="rgb(213,94,0)" stroke-width="0.8" fill="rgb(213,94,0)" fill-opacity="0.25"/>
<polygon points="283.2727273,507.0254545 347.6363636,442.6618182 283.2727273,442.6618182" stroke="rgb(213,94,0)" stroke-width="0.8" fill="rgb(213,94,0)" fill-opacity="0.25"/>
<polygon points="347.6363636,507.0254545 412,507.0254545 412,442.6618182" stroke="rgb(213,94,0)" stroke-width="0.8" fill="rgb(213,94,0)" fill-opacity="0.25"/>
<polygon points="347.6363636,507.0254545 412,442.6618182 347.6363636,442.6618182" stroke="rgb(213,94,0)" stroke-width="0.8" fill="rgb(213,94,0)" fill-opacity="0.25"/>
<polygon points="412,507.0254545 476.3636364,507.0254545 476.3636364,442.6618182" stroke="rgb(213,94,0)" stroke-width="0.8" fill="rgb(213,94,0)" fill-opacity="0.25"/>
<polygon points="412,507.0254545 476.3636364,442.6618182 412,442.6618182" stroke="rgb(213,94,0)" stroke-width="0.8" fill="rgb(213,94,0)" fill-opacity="0.25"/>
<polygon points="476.3636364,507.0254545 540.7272727,507.0254545 540.7272727,442.6618182" stroke="rgb(213,94,0)" stroke-width="0.8" fill="rgb(213,94,0)" fill-opacity="0.25"/>
<polygon points="476.3636364,507.0254545 540.7272727,442.6618182 476.3636364,442.6618182" stroke="rgb(213,94,0)" stroke-width="0.8" fill="rgb(213,94,0)" fill-opacity="0.25"/>
<polygon points="540.7272727,507.0254545 605.0909091,507.0254545 605.0909091,442.6618182" stroke="rgb(213,94,0)" stroke-width="0.8" fill="rgb(213,94,0)" fill-opacity="0.25"/>
<polygon points="540.7272727,507.0254545 605.0909091,442.6618182 540.7272727,442.6618182" stroke="rgb(213,94,0)" stroke-width="0.8" fill="rgb(213,94,0)" fill-opacity="0.25"/>
<polygon points="283.2727273,442.6618182 347.6363636,442.6618182 347.6363636,378.2981818" stroke="rgb(213,94,0)" stroke-width="0.8" fill="rgb(213,94,0)" fill-opacity="0.25"/>
<polygon points="283.2727273,442.6618182 347.6363636,378.2981818 283.2727273,378.2981818" stroke="rgb(213,94,0)" stroke-width="0.8" fill="rgb(213,94,0)" fill-opacity="0.25"/>
<polygon points="347.6363636,442.6618182 412,442.6618182 412,378.2981818" stroke="rgb(213,94,0)" stroke-width="0.8" fill="rgb(213,94,0)" fill-opacity="0.25"/>
<polygon points="347.6363636,442.6618182 412,378.2981818 347.6363636,378.2981818" stroke="rgb(213,94,0)" stroke-width="0.8" fill="rgb(213,94,0)" fill-opacity="0.25"/>
<polygon points="412,442.6618182 476.3636364,442.6618182 476.3636364,378.2981818" stroke="rgb(213,94,0)" stroke-width="0.8" fill="rgb(213,94,0)" fill-opacity="0.25"/>
<polygon points="412,442.6618182 476.3636364,378.2981818 412,378.2981818" stroke="rgb(213,94,0)" stroke-width="0.8" fill="rgb(213,94,0)" fill-opacity="0.25"/>
<polygon points="476.3636364,442.6618182 540.7272727,442.6618182 540.7272727,378.2981818" stroke="rgb(213,94,0)" stroke-width="0.8" fill="rgb(213,94,0)" fill-opacity="0.25"/>
<polygon points="476.3636364,442.6618182 540.7272727,378.2981818 476.3636364,378.2981818" stroke="rgb(213,94,0)" stroke-width="0.8" fill="rgb(213,94,0)" fill-opacity="0.25"/>
<polygon points="540.7272727,442.6618182 605.0909091,442.6618182 605.0909091,378.2981818" stroke="rgb(213,94,0)" stroke-width="0.8" fill="rgb(213,94,0)" fill-opacity="0.25"/>
<polygon points="540.7272727,442.6618182 605.0909091,378.2981818 540.7272727,378.2981818" stroke="rgb(213,94,0)" stroke-width="0.8" fill="rgb(213,94,0)" fill-opacity="0.25"/>
<polygon points="283.2727273,378.2981818 347.6363636,378.2981818 347.6363636,313.9345455" stroke="rgb(213,94,0)" stroke-width="0.8" fill="rgb(213,94,0)" fill-opacity="0.25"/>
<polygon points="283.2727273,378.2981818 347.6363636,313.9345455 283.2727273,313.9345455" stroke="rgb(213,94,0)" stroke-width="0.8" fill="rgb(213,94,0)" fill-opacity="0.25"/>
<polygon points="347.6363636,378.2981818 412,378.2981818 412,313.9345455" stroke="rgb(213,94,0)" stroke-width="0.8" fill="rgb(213,94,0)" fill-opacity="0.25"/>
<polygon points="347.6363636,378.2981818 412,313.9345455 347.6363636,313.9345455" stroke="rgb(213,94,0)" stroke-width="0.8" fill="rgb(213,94,0)" fill-opacity="0.25"/>
<polygon points="412,378.2981818 476.3636364,378.2981818 476.3636364,313.9345455" stroke="rgb(213,94,0)" stroke-width="0.8" fill="rgb(213,94,0)" fill-opacity="0.25"/>
<polygon points="412,378.2981818 476.3636364,313.9345455 412,313.9345455" stroke="rgb(213,94,0)" stroke-width="0.8" fill="rgb(213,94,0)" fill-opacity="0.25"/>
<polygon points="476.3636364,378.2981818 540.7272727,378.2981818 540.7272727,313.9345455" stroke="rgb(213,94,0)" stroke-width="0.8" fill="rgb(213,94,0)" fill-opacity="0.25"/>
<polygon points="476.3636364,378.2981818 540.7272727,313.9345455 476.3636364,313.9345455" stroke="rgb(213,94,0)" stroke-width="0.8" fill="rgb(213,94,0)" fill-opacity="0.25"/>
<polygon points="540.7272727,378.2981818 605.0909091,378.2981818 605.0909091,313.9345455" stroke="rgb(213,94,0)" stroke-width="0.8" fill="rgb(213,94,0)" fill-opacity="0.25"/>
<polygon points="540.7272727,378.2981818 605.0909091,313.9345455 540.7272727,313.9345455" stroke="rgb(213,94,0)" stroke-width="0.8" fill="rgb(213,94,0)" fill-opacity="0.25"/>
<polygon points="283.2727273,313.9345455 347.6363636,313.9345455 347.6363636,249.5709091" stroke="rgb(213,94,0)" stroke-width="0.8" fill="rgb(213,94,0)" fill-opacity="0.25"/>
<polygon points="283.2727273,313.9345455 347.6363636,249.5709091 283.2727273,249.5709091" stroke="rgb(213,94,0)" stroke-width="0.8" fill="rgb(213,94,0)" fill-opacity="0.25"/>
<polygon points="347.6363636,313.9345455 412,313.9345455 412,249.5709091" stroke="rgb(213,94,0)" stroke-width="0.8" fill="rgb(213,94,0)" fill-opacity="0.25"/>
<polygon points="347.6363636,313.9345455 412,249.5709091 347.6363636,249.5709091" stroke="rgb(213,94,0)" stroke-width="0.8" fill="rgb(213,94,0)" fill-opacity="0.25"/>
<polygon points="412,313.9345455 476.3636364,313.9345455 476.3636364,249.5709091" stroke="rgb(213,94,0)" stroke-width="0.8" fill="rgb(213,94,0)" fill-opacity="0.25"/>
<polygon points="412,313.9345455 476.3636364,249.5709091 412,249.5709091" stroke="rgb(213,94,0)" stroke-width="0.8" fill="rgb(213,94,0)" fill-opacity="0.25"/>
<polygon points="476.3636364,313.9345455 540.7272727,313.9345455 540.7272727,249.5709091" stroke="rgb(213,94,0)" stroke-width="0.8" fill="rgb(213,94,0)" fill-opacity="0.25"/>
<polygon points="476.3636364,313.9345455 540.7272727,249.5709091 476.3636364,249.5709091" stroke="rgb(213,94,0)" stroke-width="0.8" fill="rgb(213,94,0)" fill-opacity="0.25"/>
<polygon points="540.7272727,313.9345455 605.0909091,313.9345455 605.0909091,249.5709091" stroke="rgb(213,94,0)" stroke-width="0.8" fill="rgb(213,94,0)" fill-opacity="0.25"/>
<polygon points="540.7272727,313.9345455 605.0909091,249.5709091 540.7272727,249.5709091" stroke="rgb(213,94,0)" stroke-width="0.8" fill="rgb(213,94,0)" fill-opacity="0.25"/>
<polygon points="283.2727273,249.5709091 347.6363636,249.5709091 347.6363636,185.2072727" stroke="rgb(213,94,0)" stroke-width="0.8" fill="rgb(213,94,0)" fill-opacity="0.25"/>
<polygon points="283.2727273,249.5709091 347.6363636,185.2072727 283.2727273,185.2072727" stroke="rgb(213,94,0)" stroke-width="0.8" fill="rgb(213,94,0)" fill-opacity="0.25"/>
<polygon points="347.6363636,249.5709091 412,249.5709091 412,185.2072727" stroke="rgb(213,94,0)" stroke-width="0.8" fill="rgb(213,94,0)" fill-opacity="0.25"/>
<polygon points="347.6363636,249.5709091 412,185.2072727 347.6363636,185.2072727" stroke="rgb(213,94,0)" stroke-width="0.8" fill="rgb(213,94,0)" fill-opacity="0.25"/>
<polygon points="412,249.5709091 476.3636364,249.5709091 476.3636364,185.2072727" stroke="rgb(213,94,0)" stroke-width="0.8" fill="rgb(213,94,0)" fill-opacity="0.25"/>
<polygon points="412,249.5709091 476.3636364,185.2072727 412,185.2072727" stroke="rgb(213,94,0)" stroke-width="0.8" fill="rgb(213,94,0)" fill-opacity="0.25"/>
<polygon points="476.3636364,249.5709091 540.7272727,249.5709091 540.7272727,185.2072727" stroke="rgb(213,94,0)" stroke-width="0.8" fill="rgb(213,94,0)" fill-opacity="0.25"/>
<polygon points="476.3636364,249.5709091 540.7272727,185.2072727 476.3636364,185.2072727" stroke="rgb(213,94,0)" stroke-width="0.8" fill="rgb(213,94,0)" fill-opacity="0.25"/>
<polygon points="540.7272727,249.5709091 605.0909091,249.5709091 605.0909091,185.2072727" stroke="rgb(213,94,0)" stroke-width="0.8" fill="rgb(213,94,0)" fill-opacity="0.25"/>
<polygon points="540.7272727,249.5709091 605.0909091,185.2072727 540.7272727,185.2072727" stroke="rgb(213,94,0)" stroke-width="0.8" fill="rgb(213,94,0)" fill-opacity="0.25"/>
<polygon points="283.2727273,185.2072727 347.6363636,185.2072727 347.6363636,120.8436364" stroke="rgb(213,94,0)" stroke-width="0.8" fill="rgb(213,94,0)" fill-opacity="0.25"/>
<polygon points="283.2727273,185.2072727 347.6363636,120.8436364 283.2727273,120.8436364" stroke="rgb(213,94,0)" stroke-width="0.8" fill="rgb(213,94,0)" fill-opacity="0.25"/>
<polygon points="347.6363636,185.2072727 412,185.2072727 412,120.8436364" stroke="rgb(213,94,0)" stroke-width="0.8" fill="rgb(213,94,0)" fill-opacity="0.25"/>
<polygon points="347.6363636,185.2072727 412,120.8436364 347.6363636,120.8436364" stroke="rgb(213,94,0)" stroke-width="0.8" fill="rgb(213,94,0)" fill-opacity="0.25"/>
<polygon points="412,185.2072727 476.3636364,185.2072727 476.3636364,120.8436364" stroke="rgb(213,94,0)" stroke-width="0.8" fill="rgb(213,94,0)" fill-opacity="0.25"/>
<polygon points="412,185.2072727 476.3636364,120.8436364 412,120.8436364" stroke="rgb(213,94,0)" stroke-width="0.8" fill="rgb(213,94,0)" fill-opacity="0.25"/>
<polygon points="476.3636364,185.2072727 540.7272727,185.2072727 540.7272727,120.8436364" stroke="rgb(213,94,0)" stroke-width="0.8" fill="rgb(213,94,0)" fill-opacity="0.25"/>
<polygon points="476.3636364,185.2072727 540.7272727,120.8436364 476.3636364,120.8436364" stroke="rgb(213,94,0)" stroke-width="0.8" fill="rgb(213,94,0)" fill-opacity="0.25"/>
<polygon points="540.7272727,185.2072727 605.0909091,185.2072727 605.0909091,120.8436364" stroke="rgb(213,94,0)" stroke-width="0.8" fill="rgb(213,94,0)" fill-opacity="0.25"/>
<polygon points="540.7272727,185.2072727 605.0909091,120.8436364 540.7272727,120.8436364" stroke="rgb(213,94,0)" stroke-width="0.8" fill="rgb(213,94,0)" fill-opacity="0.25"/>
<polygon points="321.8909091,455.5345455 404.2763636,455.5345455 404.2763636,373.1490909" stroke="rgb(0,114,178)" stroke-width="1.2" fill="none"/>
<polygon points="321.8909091,455.5345455 404.2763636,373.1490909 321.8909091,373.1490909" stroke="rgb(0,114,178)" stroke-width="1.2" fill="none"/>
<polygon points="404.2763636,455.5345455 486.6618182,455.5345455 486.6618182,373.1490909" stroke="rgb(0,114,178)" stroke-width="1.2" fill="none"/>
<polygon points="404.2763636,455.5345455 486.6618182,373.1490909 404.2763636,373.1490909" stroke="rgb(0,114,178)" stroke-width="1.2" fill="none"/>
<polygon points="486.6618182,455.5345455 569.0472727,455.5345455 569.0472727,373.1490909" stroke="rgb(0,114,178)" stroke-width="1.2" fill="none"/>
<polygon points="486.6618182,455.5345455 569.0472727,373.1490909 486.6618182,373.1490909" stroke="rgb(0,114,178)" stroke-width="1.2" fill="none"/>
<polygon points="569.0472727,455.5345455 651.4327273,455.5345455 651.4327273,373.1490909" stroke="rgb(0,114,178)" stroke-width="1.2" fill="none"/>
<polygon points="569.0472727,455.5345455 651.4327273,373.1490909 569.0472727,373.1490909" stroke="rgb(0,114,178)" stroke-width="1.2" fill="none"/>
<polygon points="651.4327273,455.5345455 733.8181818,455.5345455 733.8181818,373.1490909" stroke="rgb(0,114,178)" stroke-width="1.2" fill="none"/>
<polygon points="651.4327273,455.5345455 733.8181818,373.1490909 651.4327273,373.1490909" stroke="rgb(0,114,178)" stroke-width="1.2" fill="none"/>
<polygon points="321.8909091,373.1490909 404.2763636,373.1490909 404.2763636,290.7636364" stroke="rgb(0,114,178)" stroke-width="1.2" fill="none"/>
<polygon points="321.8909091,373.1490909 404.2763636,290.7636364 321.8909091,290.7636364" stroke="rgb(0,114,178)" stroke-width="1.2" fill="none"/>
<polygon points="404.2763636,373.1490909 486.6618182,373.1490909 486.6618182,290.7636364" stroke="rgb(0,114,178)" stroke-width="1.2" fill="none"/>
<polygon points="404.2763636,373.1490909 486.6618182,290.7636364 404.2763636,290.7636364" stroke="rgb(0,114,178)" stroke-width="1.2" fill="none"/>
<polygon points="486.6618182,373.1490909 569.0472727,373.1490909 569.0472727,290.7636364" stroke="rgb(0,114,178)" stroke-width="1.2" fill="none"/>
<polygon points="486.6618182,373.1490909 569.0472727,290.7636364 486.6618182,290.7636364" stroke="rgb(0,114,178)" stroke-width="1.2" fill="none"/>
<polygon points="569.0472727,373.1490909 651.4327273,373.1490909 651.4327273,290.7636364" stroke="rgb(0,114,178)" stroke-width="1.2" fill="none"/>
<polygon points="569.0472727,373.1490909 651.4327273,290.7636364 569.0472727,290.7636364" stroke="rgb(0,114,178)" stroke-width="1.2" fill="none"/>
<polygon points="651.4327273,373.1490909 733.8181818,373.1490909 733.8181818,290.7636364" stroke="rgb(0,114,178)" stroke-width="1.2" fill="none"/>
<polygon points="651.4327273,373.1490909 733.8181818,290.7636364 651.4327273,290.7636364" stroke="rgb(0,114,178)" stroke-width="1.2" fill="none"/>
<polygon points="321.8909091,290.7636364 404.2763636,290.7636364 404.2763636,208.3781818" stroke="rgb(0,114,178)" stroke-width="1.2" fill="none"/>
<polygon points="321.8909091,290.7636364 404.2763636,208.3781818 321.8909091,208.3781818" stroke="rgb(0,114,178)" stroke-width="1.2" fill="none"/>
<polygon points="404.2763636,290.7636364 486.6618182,290.7636364 486.6618182,208.3781818" stroke="rgb(0,114,178)" stroke-width="1.2" fill="none"/>
<polygon points="404.2763636,290.7636364 486.6618182,208.3781818 404.2763636,208.3781818" stroke="rgb(0,114,178)" stroke-width="1.2" fill="none"/>
<polygon points="486.6618182,290.7636364 569.0472727,290.7636364 569.0472727,208.3781818" stroke="rgb(0,114,178)" stroke-width="1.2" fill="none"/>
<polygon points="486.6618182,290.7636364 569.0472727,208.3781818 486.6618182,208.3781818" stroke="rgb(0,114,178)" stroke-width="1.2" fill="none"/>
<polygon points="569.0472727,290.7636364 651.4327273,290.7636364 651.4327273,208.3781818" stroke="rgb(0,114,178)" stroke-width="1.2" fill="none"/>
<polygon points="569.0472727,290.7636364 651.4327273,208.3781818 569.0472727,208.3781818" stroke="rgb(0,114,178)" stroke-width="1.2" fill="none"/>
<polygon points="651.4327273,290.7636364 733.8181818,290.7636364 733.8181818,208.3781818" stroke="rgb(0,114,178)" stroke-width="1.2" fill="none"/>
<polygon points="651.4327273,290.7636364 733.8181818,208.3781818 651.4327273,208.3781818" stroke="rgb(0,114,178)" stroke-width="1.2" fill="none"/>
<polygon points="321.8909091,208.3781818 404.2763636,208.3781818 404.2763636,125.9927273" stroke="rgb(0,114,178)" stroke-width="1.2" fill="none"/>
<polygon points="321.8909091,208.3781818 404.2763636,125.9927273 321.8909091,125.9927273" stroke="rgb(0,114,178)" stroke-width="1.2" fill="none"/>
<polygon points="404.2763636,208.3781818 486.6618182,208.3781818 486.6618182,125.9927273" stroke="rgb(0,114,178)" stroke-width="1.2" fill="none"/>
<polygon points="404.2763636,208.3781818 486.6618182,125.9927273 404.2763636,125.9927273" stroke="rgb(0,114,178)" stroke-width="1.2" fill="none"/>
<polygon points="486.6618182,208.3781818 569.0472727,208.3781818 569.0472727,125.9927273" stroke="rgb(0,114,178)" stroke-width="1.2" fill="none"/>
<polygon points="486.6618182,208.3781818 569.0472727,125.9927273 486.6618182,125.9927273" stroke="rgb(0,114,178)" stroke-width="1.2" fill="none"/>
<polygon points="569.0472727,208.3781818 651.4327273,208.3781818 651.4327273,125.9927273" stroke="rgb(0,114,178)" stroke-width="1.2" fill="none"/>
<polygon points="569.0472727,208.3781818 651.4327273,125.9927273 569.0472727,125.9927273" stroke="rgb(0,114,178)" stroke-width="1.2" fill="none"/>
<polygon points="651.4327273,208.3781818 733.8181818,208.3781818 733.8181818,125.9927273" stroke="rgb(0,114,178)" stroke-width="1.2" fill="none"/>
<polygon points="651.4327273,208.3781818 733.8181818,125.9927273 651.4327273,125.9927273" stroke="rgb(0,114,178)" stroke-width="1.2" fill="none"/>
<polygon points="321.8909091,125.9927273 404.2763636,125.9927273 404.2763636,43.60727273" stroke="rgb(0,114,178)" stroke-width="1.2" fill="none"/>
<polygon points="321.8909091,125.9927273 404.2763636,43.60727273 321.8909091,43.60727273" stroke="rgb(0,114,178)" stroke-width="1.2" fill="none"/>
<polygon points="404.2763636,125.9927273 486.6618182,125.9927273 486.6618182,43.60727273" stroke="rgb(0,114,178)" stroke-width="1.2" fill="none"/>
<polygon points="404.2763636,125.9927273 486.6618182,43.60727273 404.2763636,43.60727273" stroke="rgb(0,114,178)" stroke-width="1.2" fill="none"/>
<polygon points="486.6618182,125.9927273 569.0472727,125.9927273 569.0472727,43.60727273" stroke="rgb(0,114,178)" stroke-width="1.2" fill="none"/>
<polygon points="486.6618182,125.9927273 569.0472727,43.60727273 486.6618182,43.60727273" stroke="rgb(0,114,178)" stroke-width="1.2" fill="none"/>
<polygon points="569.0472727,125.9927273 651.4327273,125.9927273 651.4327273,43.60727273" stroke="rgb(0,114,178)" stroke-width="1.2" fill="none"/>
<polygon points="569.0472727,125.9927273 651.4327273,43.60727273 569.0472727,43.60727273" stroke="rgb(0,114,178)" stroke-width="1.2" fill="none"/>
<polygon points="651.4327273,125.9927273 733.8181818,125.9927273 733.8181818,43.60727273" stroke="rgb(0,114,178)" stroke-width="1.2" fill="none"/>
<polygon points="651.4327273,125.9927273 733.8181818,43.60727273 651.4327273,43.60727273" stroke="rgb(0,114,178)" stroke-width="1.2" fill="none"/>
</g>
<rect x="58" y="14" width="708" height="651.36" stroke="rgb(60,60,60)" stroke-width="1" fill="none"/>
<polyline points="90.18181818,665.36 90.18181818,669.36" stroke="rgb(60,60,60)" stroke-width="1" fill="none"/>
<text x="90.18181818" y="682.36" font-family="Helvetica,Arial,sans-serif" font-size="11" fill="rgb(60,60,60)" text-anchor="middle">0</text>
<polyline points="193.1636364,665.36 193.1636364,669.36" stroke="rgb(60,60,60)" stroke-width="1" fill="none"/>
<text x="193.1636364" y="682.36" font-family="Helvetica,Arial,sans-serif" font-size="11" fill="rgb(60,60,60)" text-anchor="middle">0.2</text>
<polyline points="296.1454545,665.36 296.1454545,669.36" stroke="rgb(60,60,60)" stroke-width="1" fill="none"/>
<text x="296.1454545" y="682.36" font-family="Helvetica,Arial,sans-serif" font-size="11" fill="rgb(60,60,60)" text-anchor="middle">0.4</text>
<polyline points="399.1272727,665.36 399.1272727,669.36" stroke="rgb(60,60,60)" stroke-width="1" fill="none"/>
<text x="399.1272727" y="682.36" font-family="Helvetica,Arial,sans-serif" font-size="11" fill="rgb(60,60,60)" text-anchor="middle">0.6</text>
<polyline points="502.1090909,665.36 502.1090909,669.36" stroke="rgb(60,60,60)" stroke-width="1" fill="none"/>
<text x="502.1090909" y="682.36" font-family="Helvetica,Arial,sans-serif" font-size="11" fill="rgb(60,60,60)" text-anchor="middle">0.8</text>
<polyline points="605.0909091,665.36 605.0909091,669.36" stroke="rgb(60,60,60)" stroke-width="1" fill="none"/>
<text x="605.0909091" y="682.36" font-family="Helvetica,Arial,sans-serif" font-size="11" fill="rgb(60,60,60)" text-anchor="middle">1</text>
<polyline points="708.0727273,665.36 708.0727273,669.36" stroke="rgb(60,60,60)" stroke-width="1" fill="none"/>
<text x="708.0727273" y="682.36" font-family="Helvetica,Arial,sans-serif" font-size="11" fill="rgb(60,60,60)" text-anchor="middle">1.2</text>
<polyline points="54,635.7527273 58,635.7527273" stroke="rgb(60,60,60)" stroke-width="1" fill="none"/>
<text x="50" y="639.7527273" font-family="Helvetica,Arial,sans-serif" font-size="11" fill="rgb(60,60,60)" text-anchor="end">0</text>
<polyline points="54,532.7709091 58,532.7709091" stroke="rgb(60,60,60)" stroke-width="1" fill="none"/>
<text x="50" y="536.7709091" font-family="Helvetica,Arial,sans-serif" font-size="11" fill="rgb(60,60,60)" text-anchor="end">0.2</text>
<polyline points="54,429.7890909 58,429.7890909" stroke="rgb(60,60,60)" stroke-width="1" fill="none"/>
<text x="50" y="433.7890909" font-family="Helvetica,Arial,sans-serif" font-size="11" fill="rgb(60,60,60)" text-anchor="end">0.4</text>
<polyline points="54,326.8072727 58,326.8072727" stroke="rgb(60,60,60)" stroke-width="1" fill="none"/>
<text x="50" y="330.8072727" font-family="Helvetica,Arial,sans-serif" font-size="11" fill="rgb(60,60,60)" text-anchor="end">0.6</text>
<polyline points="54,223.8254545 58,223.8254545" stroke="rgb(60,60,60)" stroke-width="1" fill="none"/>
<text x="50" y="227.8254545" font-family="Helvetica,Arial,sans-serif" font-size="11" fill="rgb(60,60,60)" text-anchor="end">0.8</text>
<polyline points="54,120.8436364 58,120.8436364" stroke="rgb(60,60,60)" stroke-width="1" fill="none"/>
<text x="50" y="124.8436364" font-family="Helvetica,Arial,sans-serif" font-size="11" fill="rgb(60,60,60)" text-anchor="end">1</text>
<polyline points="54,17.86181818 58,17.86181818" stroke="rgb(60,60,60)" stroke-width="1" fill="none"/>
<text x="50" y="21.86181818" font-family="Helvetica,Arial,sans-serif" font-size="11" fill="rgb(60,60,60)" text-anchor="end">1.2</text>
</svg>
