<svg xmlns="http://www.w3.org/2000/svg" width="700" height="688.0449911" viewBox="0 0 700 688.0449911">
<rect x="0" y="0" width="700" height="688.0449911" fill="white"/>
<clipPath id="plotclip"><rect x="58" y="14" width="628" height="632.0449911"/></clipPath>
<g clip-path="url(#plotclip)">
<ellipse cx="0" cy="0" rx="215.7379934" ry="68.64390699" transform="translate(390.9848933 343.5795874) rotate(24.9981486)" stroke="rgb(0,114,178)" stroke-width="1.8" fill="rgb(0,114,178)" fill-opacity="0.12"/>
<circle cx="210.9451097" cy="573.2572219" r="3" stroke="none" fill="rgb(158,158,158)"/>
<circle cx="264.8598893" cy="159.2694445" r="3" stroke="none" fill="rgb(158,158,158)"/>
<circle cx="652.7473884" cy="360.2055978" r="3" stroke="none" fill="rgb(158,158,158)"/>
<circle cx="345.2395587" cy="192.4854167" r="3" stroke="none" fill="rgb(158,158,158)"/>
<circle cx="258.4116019" cy="42.72931778" r="3" stroke="none" fill="rgb(158,158,158)"/>
<circle cx="232.4395365" cy="301.3169823" r="3" stroke="none" fill="rgb(158,158,158)"/>
<circle cx="128.221961" cy="323.3077876" r="3" stroke="none" fill="rgb(158,158,158)"/>
<circle cx="323.9328644" cy="575.7620328" r="3" stroke="none" fill="rgb(158,158,158)"/>
<circle cx="86.54545455" cy="460.2120658" r="3" stroke="none" fill="rgb(158,158,158)"/>
<circle cx="387.7084948" cy="324.0361777" r="3" stroke="none" fill="rgb(158,158,158)"/>
<circle cx="588.3664013" cy="218.5123557" r="3" stroke="none" fill="rgb(158,158,158)"/>
<circle cx="271.8421634" cy="145.2541757" r="3" stroke="none" fill="rgb(158,158,158)"/>
<circle cx="308.3821356" cy="394.0184637" r="3" stroke="none" fill="rgb(158,158,158)"/>
<circle cx="473.9442475" cy="579.35983" r="3" stroke="none" fill="rgb(158,158,158)"/>
<circle cx="472.7597528" cy="448.6171601" r="3" stroke="none" fill="rgb(158,158,158)"/>
<circle cx="485.5359406" cy="82.97189999" r="3" stroke="none" fill="rgb(158,158,158)"/>
<circle cx="280.7464698" cy="492.6043207" r="3" stroke="none" fill="rgb(158,158,158)"/>
<circle cx="624.0965751" cy="352.1361744" r="3" stroke="none" fill="rgb(158,158,158)"/>
<circle cx="231.6822577" cy="70.25561837" r="3" stroke="none" fill="rgb(158,158,158)"/>
<circle cx="518.9152054" cy="603.5050993" r="3" stroke="none" fill="rgb(158,158,158)"/>
<circle cx="227.1578124" cy="264.8064354" r="3" stroke="none" fill="rgb(158,158,158)"/>
<circle cx="578.0657726" cy="59.1214958" r="3" stroke="none" fill="rgb(158,158,158)"/>
<circle cx="179.5927037" cy="482.6504465" r="3" stroke="none" fill="rgb(158,158,158)"/>
<circle cx="542.4507176" cy="295.4367227" r="3" stroke="none" fill="rgb(158,158,158)"/>
<circle cx="628.863099" cy="83.24558804" r="3" stroke="none" fill="rgb(158,158,158)"/>
<circle cx="341.2626578" cy="539.8014643" r="3" stroke="none" fill="rgb(158,158,158)"/>
<circle cx="303.5028784" cy="310.1916352" r="3" stroke="none" fill="rgb(158,158,158)"/>
<circle cx="287.5141513" cy="176.6318052" r="3" stroke="none" fill="rgb(158,158,158)"/>
<circle cx="190.9500488" cy="224.5236482" r="3" stroke="none" fill="rgb(158,158,158)"/>
<circle cx="136.3006852" cy="342.9404976" r="3" stroke="none" fill="rgb(158,158,158)"/>
<circle cx="361.1563146" cy="497.6268553" r="3" stroke="none" fill="rgb(158,158,158)"/>
<circle cx="438.2727804" cy="329.4001737" r="3" stroke="none" fill="rgb(158,158,158)"/>
<circle cx="636.8762017" cy="399.052873" r="3" stroke="none" fill="rgb(158,158,158)"/>
<circle cx="282.384179" cy="337.2636691" r="3" stroke="none" fill="rgb(158,158,158)"/>
<circle cx="239.8788864" cy="402.8739672" r="3" stroke="none" fill="rgb(158,158,158)"/>
<circle cx="339.897679" cy="125.1440895" r="3" stroke="none" fill="rgb(158,158,158)"/>
<circle cx="640.7979544" cy="165.9012047" r="3" stroke="none" fill="rgb(158,158,158)"/>
<circle cx="182.842973" cy="433.4081723" r="3" stroke="none" fill="rgb(158,158,158)"/>
<circle cx="161.1547439" cy="281.2360122" r="3" stroke="none" fill="rgb(158,158,158)"/>
<circle cx="126.3183649" cy="455.7344826" r="3" stroke="none" fill="rgb(158,158,158)"/>
<circle cx="399.1643781" cy="351.7131476" r="3" stroke="none" fill="rgb(158,158,158)"/>
<circle cx="259.7039566" cy="410.4710953" r="3" stroke="none" fill="rgb(158,158,158)"/>
<circle cx="243.5297737" cy="231.3569194" r="3" stroke="none" fill="rgb(158,158,158)"/>
<circle cx="619.0749908" cy="400.2494" r="3" stroke="none" fill="rgb(158,158,158)"/>
<circle cx="332.152454" cy="348.0357681" r="3" stroke="none" fill="rgb(158,158,158)"/>
<circle cx="323.5710236" cy="194.9219186" r="3" stroke="none" fill="rgb(158,158,158)"/>
<circle cx="657.4545455" cy="375.1605924" r="3" stroke="none" fill="rgb(158,158,158)"/>
<circle cx="544.1019916" cy="84.83720749" r="3" stroke="none" fill="rgb(158,158,158)"/>
<circle cx="279.1767758" cy="511.9817487" r="3" stroke="none" fill="rgb(158,158,158)"/>
<circle cx="253.896586" cy="182.0983983" r="3" stroke="none" fill="rgb(158,158,158)"/>
<circle cx="373.6994623" cy="369.640321" r="3" stroke="none" fill="rgb(158,158,158)"/>
<circle cx="443.8931593" cy="367.240021" r="3" stroke="none" fill="rgb(158,158,158)"/>
<circle cx="463.7311465" cy="244.9011066" r="3" stroke="none" fill="rgb(158,158,158)"/>
<circle cx="229.6535332" cy="310.4895765" r="3" stroke="none" fill="rgb(158,158,158)"/>
<circle cx="315.5937189" cy="374.0461178" r="3" stroke="none" fill="rgb(158,158,158)"/>
<circle cx="469.7846283" cy="617.3156734" r="3" stroke="none" fill="rgb(158,158,158)"/>
<circle cx="335.7763506" cy="563.8702315" r="3" stroke="none" fill="rgb(158,158,158)"/>
<circle cx="537.1388592" cy="200.7643366" r="3" stroke="none" fill="rgb(158,158,158)"/>
<circle cx="480.0036374" cy="309.6426707" r="3" stroke="none" fill="rgb(158,158,158)"/>
<circle cx="510.6260029" cy="208.5508672" r="3" stroke="none" fill="rgb(158,158,158)"/>
<circle cx="232.4395365" cy="301.3169823" r="4" stroke="none" fill="rgb(213,94,0)"/>
<circle cx="387.7084948" cy="324.0361777" r="4" stroke="none" fill="rgb(213,94,0)"/>
<circle cx="227.1578124" cy="264.8064354" r="4" stroke="none" fill="rgb(213,94,0)"/>
<circle cx="303.5028784" cy="310.1916352" r="4" stroke="none" fill="rgb(213,94,0)"/>
<circle cx="438.2727804" cy="329.4001737" r="4" stroke="none" fill="rgb(213,94,0)"/>
<circle cx="282.384179" cy="337.2636691" r="4" stroke="none" fill="rgb(213,94,0)"/>
<circle cx="399.1643781" cy="351.7131476" r="4" stroke="none" fill="rgb(213,94,0)"/>
<circle cx="332.152454" cy="348.0357681" r="4" stroke="none" fill="rgb(213,94,0)"/>
<circle cx="373.6994623" cy="369.640321" r="4" stroke="none" fill="rgb(213,94,0)"/>
<circle cx="443.8931593" cy="367.240021" r="4" stroke="none" fill="rgb(213,94,0)"/>
<circle cx="229.6535332" cy="310.4895765" r="4" stroke="none" fill="rgb(213,94,0)"/>
<circle cx="315.5937189" cy="374.0461178" r="4" stroke="none" fill="rgb(213,94,0)"/>
</g>
<rect x="58" y="14" width="628" height="632.0449911" stroke="rgb(60,60,60)" stroke-width="1" fill="none"/>
<polyline points="77.1841756,646.0449911 77.1841756,650.0449911" stroke="rgb(60,60,60)" stroke-width="1" fill="none"/>
<text x="77.1841756" y="663.0449911" font-family="Helvetica,Arial,sans-serif" font-size="11" fill="rgb(60,60,60)" text-anchor="middle">-1.5</text>
<polyline points="175.2468999,646.0449911 175.2468999,650.0449911" stroke="rgb(60,60,60)" stroke-width="1" fill="none"/>
<text x="175.2468999" y="663.0449911" font-family="Helvetica,Arial,sans-serif" font-size="11" fill="rgb(60,60,60)" text-anchor="middle">-1</text>
<polyline points="273.3096241,646.0449911 273.3096241,650.0449911" stroke="rgb(60,60,60)" stroke-width="1" fill="none"/>
<text x="273.3096241" y="663.0449911" font-family="Helvetica,Arial,sans-serif" font-size="11" fill="rgb(60,60,60)" text-anchor="middle">-0.5</text>
<polyline points="371.3723484,646.0449911 371.3723484,650.0449911" stroke="rgb(60,60,60)" stroke-width="1" fill="none"/>
<text x="371.3723484" y="663.0449911" font-family="Helvetica,Arial,sans-serif" font-size="11" fill="rgb(60,60,60)" text-anchor="middle">0</text>
<polyline points="469.4350727,646.0449911 469.4350727,650.0449911" stroke="rgb(60,60,60)" stroke-width="1" fill="none"/>
<text x="469.4350727" y="663.0449911" font-family="Helvetica,Arial,sans-serif" font-size="11" fill="rgb(60,60,60)" text-anchor="middle">0.5</text>
<polyline points="567.497797,646.0449911 567.497797,650.0449911" stroke="rgb(60,60,60)" stroke-width="1" fill="none"/>
<text x="567.497797" y="663.0449911" font-family="Helvetica,Arial,sans-serif" font-size="11" fill="rgb(60,60,60)" text-anchor="middle">1</text>
<polyline points="665.5605212,646.0449911 665.5605212,650.0449911" stroke="rgb(60,60,60)" stroke-width="1" fill="none"/>
<text x="665.5605212" y="663.0449911" font-family="Helvetica,Arial,sans-serif" font-size="11" fill="rgb(60,60,60)" text-anchor="middle">1.5</text>
<polyline points="54,618.1552154 58,618.1552154" stroke="rgb(60,60,60)" stroke-width="1" fill="none"/>
<text x="50" y="622.1552154" font-family="Helvetica,Arial,sans-serif" font-size="11" fill="rgb(60,60,60)" text-anchor="end">-1.5</text>
<polyline points="54,520.0924911 58,520.0924911" stroke="rgb(60,60,60)" stroke-width="1" fill="none"/>
<text x="50" y="524.0924911" font-family="Helvetica,Arial,sans-serif" font-size="11" fill="rgb(60,60,60)" text-anchor="end">-1</text>
<polyline points="54,422.0297669 58,422.0297669" stroke="rgb(60,60,60)" stroke-width="1" fill="none"/>
<text x="50" y="426.0297669" font-family="Helvetica,Arial,sans-serif" font-size="11" fill="rgb(60,60,60)" text-anchor="end">-0.5</text>
<polyline points="54,323.9670426 58,323.9670426" stroke="rgb(60,60,60)" stroke-width="1" fill="none"/>
<text x="50" y="327.9670426" font-family="Helvetica,Arial,sans-serif" font-size="11" fill="rgb(60,60,60)" text-anchor="end">0</text>
<polyline points="54,225.9043183 58,225.9043183" stroke="rgb(60,60,60)" stroke-width="1" fill="none"/>
<text x="50" y="229.9043183" font-family="Helvetica,Arial,sans-serif" font-size="11" fill="rgb(60,60,60)" text-anchor="end">0.5</text>
<polyline points="54,127.841594 58,127.841594" stroke="rgb(60,60,60)" stroke-width="1" fill="none"/>
<text x="50" y="131.841594" font-family="Helvetica,Arial,sans-serif" font-size="11" fill="rgb(60,60,60)" text-anchor="end">1</text>
<polyline points="54,29.77886977 58,29.77886977" stroke="rgb(60,60,60)" stroke-width="1" fill="none"/>
<text x="50" y="33.77886977" font-family="Helvetica,Arial,sans-serif" font-size="11" fill="rgb(60,60,60)" text-anchor="end">1.5</text>
</svg>
